<svg xmlns="http://www.w3.org/2000/svg" xmlns:xlink="http://www.w3.org/1999/xlink" viewBox="0 0 102.43 54.25"><defs><style>.cls-1{fill:#fff;}.cls-2,.cls-8{fill:#354557;}.cls-3{fill:#1b495b;}.cls-4{fill:#236380;}.cls-5{fill:#26739e;}.cls-6{fill:#7f9dbd;}.cls-7{fill:#ced7e3;}.cls-8{opacity:0.8;}.cls-13,.cls-14,.cls-15,.cls-16,.cls-9{fill:#093d4c;}.cls-9{opacity:0.2;}.cls-10{fill:#18c0dc;}.cls-11{fill:#d34f32;}.cls-12{fill:#f2f2f3;}.cls-13{opacity:0.7;}.cls-14{opacity:0.2;}.cls-15{opacity:0.5;}.cls-16{opacity:0.3;}</style><symbol id="Concepts_in_Practice" data-name="Concepts in Practice" viewBox="0 0 102.43 54.25"><path class="cls-1" d="M86.65,10.61V54.25H27.24V10.61a.36.36,0,0,1,.36-.36H86.29A.36.36,0,0,1,86.65,10.61Z"/><path class="cls-2" d="M86.23,9.53H27.65a1.14,1.14,0,0,0-1.14,1.14V54.25H28V17.54h58V54.25h1.44V10.67A1.14,1.14,0,0,0,86.23,9.53ZM28,16.09V11h58v5.12Z"/><path class="cls-2" d="M35.09,32H46.6a.72.72,0,0,0,0-1.44H35.09a.72.72,0,1,0,0,1.44Z"/><path class="cls-2" d="M49.67,33.61H35.09a.73.73,0,0,0,0,1.45H49.67a.73.73,0,1,0,0-1.45Z"/><path class="cls-2" d="M47.54,36.7H35.09a.72.72,0,1,0,0,1.44H47.54a.72.72,0,1,0,0-1.44Z"/><path class="cls-2" d="M45.37,39.78H35.09a.73.73,0,0,0,0,1.45H45.37a.73.73,0,1,0,0-1.45Z"/><path class="cls-3" d="M69,35.88l-10,3.85A10.75,10.75,0,0,1,69,25.12Z"/><path class="cls-4" d="M69,35.88,74.66,45a10.76,10.76,0,0,1-14.83-3.42,10.29,10.29,0,0,1-.92-1.85Z"/><path class="cls-5" d="M69,35.88l10.52-2.24A10.53,10.53,0,0,1,74.66,45Z"/><path class="cls-6" d="M69,35.88l4.88-9.59a10.49,10.49,0,0,1,5.64,7.35Z"/><path class="cls-7" d="M69,35.88V25.12a10.13,10.13,0,0,1,4.88,1.17Z"/><circle class="cls-8" cx="10.23" cy="20.96" r="2.32"/><path class="cls-9" d="M10.23,24.64A3.69,3.69,0,1,1,13.91,21,3.68,3.68,0,0,1,10.23,24.64Zm0-6A2.32,2.32,0,1,0,12.55,21,2.32,2.32,0,0,0,10.23,18.64Z"/><circle class="cls-2" cx="26.38" cy="46.1" r="2.35"/><path class="cls-10" d="M26.38,49.72A3.62,3.62,0,1,1,30,46.1,3.62,3.62,0,0,1,26.38,49.72Zm0-5.9a2.28,2.28,0,1,0,2.27,2.28A2.29,2.29,0,0,0,26.38,43.82Z"/><circle class="cls-2" cx="97.26" cy="6.88" r="3.5"/><path class="cls-11" d="M97.26,12.06a5.18,5.18,0,1,1,5.17-5.18A5.18,5.18,0,0,1,97.26,12.06Zm0-8.43a3.26,3.26,0,1,0,3.25,3.25A3.26,3.26,0,0,0,97.26,3.63Z"/><path class="cls-12" d="M19.68,0H.79A.79.79,0,0,0,0,.79V13.13a.78.78,0,0,0,.79.78H8.33l1.9,2,1.9-2h7.55a.78.78,0,0,0,.78-.78V.79A.78.78,0,0,0,19.68,0Z"/><rect class="cls-13" x="4.81" y="5.07" width="2.67" height="5.12"/><rect class="cls-14" x="7.48" y="2.95" width="2.67" height="7.24"/><rect class="cls-15" x="10.14" y="3.79" width="2.67" height="6.39"/><rect class="cls-16" x="12.81" y="6.03" width="2.67" height="4.16"/></symbol></defs><title>Concepts-in-practice</title><g id="Layer_2" data-name="Layer 2"><g id="Layer_1-2" data-name="Layer 1"><use id="Concepts_in_Practice-3" data-name="Concepts in Practice" width="102.43" height="54.25" xlink:href="#Concepts_in_Practice"/></g></g></svg>