<svg xmlns="http://www.w3.org/2000/svg" xmlns:xlink="http://www.w3.org/1999/xlink" viewBox="0 0 99.54 53.2"><defs><style>.cls-1{fill:#a4dcea;}.cls-2,.cls-3,.cls-6{fill:#354557;}.cls-2{opacity:0.5;}.cls-3{opacity:0.2;}.cls-4{fill:#c6c6c5;}.cls-5{fill:#e5e5e5;}.cls-7{fill:#d34f32;}.cls-8{fill:#d1e2e5;}.cls-9{fill:#18c0dc;}</style><symbol id="Continuing_application_at_work" data-name="Continuing ​application ​at ​work" viewBox="0 0 99.54 53.2"><rect class="cls-1" x="39.58" y="0.62" width="43" height="31.5" rx="0.72" ry="0.72"/><circle class="cls-2" cx="61.08" cy="11.96" r="1.83"/><rect class="cls-3" x="57.58" y="15.21" width="7" height="1.25" rx="0.21" ry="0.21"/><rect class="cls-4" x="56.58" y="32.12" width="9.25" height="7"/><rect class="cls-5" x="39.58" y="27.12" width="43" height="5.01" rx="0.72" ry="0.72"/><path class="cls-6" d="M81.86,0H40.3A1.34,1.34,0,0,0,39,1.34V31.4a1.34,1.34,0,0,0,1.34,1.35H56V38.5H50.83a.63.63,0,0,0,0,1.25H71.58a.63.63,0,1,0,0-1.25H66.46V32.75h15.4a1.35,1.35,0,0,0,1.35-1.35V1.34A1.35,1.35,0,0,0,81.86,0ZM65.21,38.5h-8V32.75h8ZM82,31.4a.1.1,0,0,1-.1.1H40.3a.09.09,0,0,1-.09-.1V27.84a.1.1,0,0,1,.09-.1H81.86a.11.11,0,0,1,.1.1Zm0-4.89-.1,0H40.3l-.09,0V1.34a.09.09,0,0,1,.09-.09H81.86a.1.1,0,0,1,.1.09Z"/><circle class="cls-6" cx="61.08" cy="29.72" r="0.75"/><path class="cls-7" d="M87.38,30h5.49a.72.72,0,0,1,.72.72v8.19a0,0,0,0,1,0,0H86.66a0,0,0,0,1,0,0V30.68A.72.72,0,0,1,87.38,30Z"/><path class="cls-6" d="M95.53,31.43H94.22v-.75a1.34,1.34,0,0,0-1.34-1.34h-5.5A1.34,1.34,0,0,0,86,30.68V39.5h8.18V38.18h1.31a1.34,1.34,0,0,0,1.35-1.35V32.77A1.34,1.34,0,0,0,95.53,31.43ZM93,38.25H87.29V30.68a.09.09,0,0,1,.09-.09h5.5a.09.09,0,0,1,.09.09Zm2.66-1.42a.09.09,0,0,1-.1.1h-1.2V32.68h1.2a.09.09,0,0,1,.1.09Z"/><polyline class="cls-4" points="3.5 53.2 3.5 44.79 6.34 44.79 6.34 53.2"/><polyline class="cls-4" points="93 53.2 93 44.79 95.83 44.79 95.83 53.2"/><rect class="cls-5" x="0.63" y="39.62" width="98.29" height="5.17"/><path class="cls-6" d="M99.54,39H0v6.42H2.88V53.2H4.13V45.42H5.71V53.2H7V45.42H92.37V53.2h1.25V45.42h1.59V53.2h1.25V45.42h3.08Zm-1.25,5.17h-97V40.25h97Z"/><polyline class="cls-5" points="27.27 35.13 8.27 35.13 8.27 31.25 27.27 31.25"/><rect class="cls-8" x="8.27" y="35.08" width="18.98" height="3.88"/><path class="cls-6" d="M27.52,34.5H17.66V31.88h9.86a.63.63,0,0,0,0-1.26H8.27a.63.63,0,0,0-.63.63v3.87a.63.63,0,0,0,.63.63h5.81v2.63H8.46a.62.62,0,1,0,0,1.24H27.52a.62.62,0,0,0,.62-.62V35.12A.62.62,0,0,0,27.52,34.5Zm-.63,3.88H15.33V35.75H26.89Z"/><rect class="cls-9" x="32.52" y="29.37" width="3" height="9.69"/><path class="cls-6" d="M34.64,28.75V25.13a.63.63,0,0,0-1.25,0v3.62h-1.5V39.69h4.25V28.75Zm.25,9.69H33.14V30h1.75Z"/></symbol></defs><title>continuing-application-at-work</title><g id="Layer_2" data-name="Layer 2"><g id="Layer_1-2" data-name="Layer 1"><use id="Continuing_application_at_work-3" data-name="Continuing ​application ​at ​work" width="99.54" height="53.2" xlink:href="#Continuing_application_at_work"/></g></g></svg>