<svg xmlns="http://www.w3.org/2000/svg" xmlns:xlink="http://www.w3.org/1999/xlink" viewBox="0 0 115.38 63.16"><defs><style>.cls-1,.cls-3,.cls-8{fill:none;}.cls-2{fill:#a11d21;}.cls-3{clip-rule:evenodd;}.cls-4{fill:#2b3844;}.cls-15,.cls-16,.cls-21,.cls-22,.cls-4,.cls-5,.cls-6,.cls-7,.cls-8{fill-rule:evenodd;}.cls-5{fill:#374651;opacity:0.5;}.cls-29,.cls-6{fill:#354557;}.cls-7{fill:#525e6b;opacity:0.3;}.cls-9{clip-path:url(#clip-path);}.cls-10{clip-path:url(#clip-path-2);}.cls-11{isolation:isolate;}.cls-12{clip-path:url(#clip-path-3);}.cls-13{clip-path:url(#clip-path-4);}.cls-14,.cls-21{fill:#cea672;}.cls-15,.cls-30{fill:#18c0dc;}.cls-16{fill:#20a9b7;}.cls-17{clip-path:url(#clip-path-6);}.cls-18{fill:#b89366;}.cls-19{clip-path:url(#clip-path-8);}.cls-20{clip-path:url(#clip-path-10);}.cls-22{fill:#bb9a72;}.cls-23{fill:#231f20;}.cls-24{fill:#fff;}.cls-25{fill:#3a271b;}.cls-26{fill:#2a2a2a;}.cls-27{clip-path:url(#clip-path-11);}.cls-28{fill:#e5e5e5;}</style><clipPath id="clip-path"><rect id="SVGID" class="cls-1" x="36.18" y="27.79" width="53.02" height="29.74"/></clipPath><clipPath id="clip-path-2"><rect id="SVGID-2" data-name="SVGID" class="cls-1" x="36.18" y="2.04" width="54.01" height="56.26"/></clipPath><clipPath id="clip-path-3"><rect id="SVGID-3" data-name="SVGID" class="cls-1" x="36.18" y="26.8" width="54.01" height="31.51"/></clipPath><clipPath id="clip-path-4"><path id="SVGID-4" data-name="SVGID" class="cls-3" d="M89.2,57.53V50.18a9.71,9.71,0,0,0-6-9L72.65,36.78a4,4,0,0,1-2.46-3.7V27.79h-15v5.29a4,4,0,0,1-2.45,3.7l-10.6,4.44a9.71,9.71,0,0,0-6,9v7.35Z"/></clipPath><clipPath id="clip-path-6"><path id="SVGID-6" data-name="SVGID" class="cls-3" d="M62.69,39c1.67,0,3.57-.11,6.4-2.85a12.36,12.36,0,0,0,1.4-1.63,3.87,3.87,0,0,1-.3-1.48V29.81a4.84,4.84,0,0,1-1.87,2l0-.18a5.83,5.83,0,0,0-.82-1.82,1.53,1.53,0,0,0-1.28-.66h-7a1.56,1.56,0,0,0-1.29.66,6,6,0,0,0-.81,1.82l0,.18a4.82,4.82,0,0,1-1.88-2v3.28a4.06,4.06,0,0,1-.29,1.48,11,11,0,0,0,1.4,1.63C58.93,38.74,60.71,39,62.69,39"/></clipPath><clipPath id="clip-path-8"><path id="SVGID-8" data-name="SVGID" class="cls-3" d="M54.18,20.36l-.49-.79a2.25,2.25,0,0,0-1.47-1,1.27,1.27,0,0,0-1.47,1.49l.6,3a3.49,3.49,0,0,0,2.46,2.66l.87.25Z"/></clipPath><clipPath id="clip-path-10"><path id="SVGID-10" data-name="SVGID" class="cls-3" d="M70.71,26l.87-.25A3.49,3.49,0,0,0,74,23l.59-3a1.26,1.26,0,0,0-1.46-1.49,2.25,2.25,0,0,0-1.47,1l-.49.79Z"/></clipPath><clipPath id="clip-path-11"><path id="SVGID-11" data-name="SVGID" class="cls-2" d="M67.12,27.51v0c0,1.2-2,2.18-4.33,2.18s-4.34-1-4.34-2.18v0Z"/></clipPath></defs><title>customer-satisfaction-and-quality</title><g id="Layer_2" data-name="Layer 2"><g id="Layer_1-2" data-name="Layer 1"><path class="cls-4" d="M113.78,57.55l-4.59-3.95L107,46.74l-5.5-5.41-3.25-1.81a119.46,119.46,0,0,1-9-11.14c-2.8-4.3-11,.65-11,.65L69.48,38.7s-2.25,4.1-13,6.4c-9.73,2.07-24.27,10.8-27,12.45Z"/><path class="cls-5" d="M113.77,57.55l-4.57-3.93L107,46.76l-5.5-5.41-3.25-1.8a121.86,121.86,0,0,1-9-11.15c-1.65-2.54-5.18-1.85-7.8-.86a16.84,16.84,0,0,1,1.23,2.91A18,18,0,0,1,84.49,32a1.44,1.44,0,0,1,1.38.83l1,1.84a16.09,16.09,0,0,1,1.76,3.13,16.38,16.38,0,0,1,1.48,1.74,5.89,5.89,0,0,1,3,.27A2.46,2.46,0,0,1,94.33,41c1.69.33,3.45.74,4.25,1.86a4.5,4.5,0,0,1,1.52.95c.84.82,1.18,2.28,1.82,3.29,0,.07.09.14.14.21a8.93,8.93,0,0,1,1.87.45,2,2,0,0,1,.8.58,2.16,2.16,0,0,1,.87,1,23.14,23.14,0,0,0,2.3,4.2l.12,0a15.32,15.32,0,0,1,2,1.66,17.94,17.94,0,0,0,3.61,2.27Z"/><path class="cls-6" d="M89.19,47.63a96.76,96.76,0,0,1-22.33,6A195.94,195.94,0,0,1,36.73,55c-10.1-.14-19.95-1.17-29.38-6.16A32.25,32.25,0,0,0,0,57.55H105C101.83,51.4,96.25,48.9,89.19,47.63Z"/><path class="cls-7" d="M98.23,57.56H105c-3.15-6.15-8.73-8.66-15.79-9.92l-.13,0c.23.16.46.34.69.53A17.34,17.34,0,0,1,98.23,57.56Z"/><path class="cls-8" d="M115.38,57.45h-105c8.67-15,29-21.82,51.68-15.07C85.16,49.27,107.61,42.31,115.38,57.45Z"/><g class="cls-9"><g class="cls-10"><g class="cls-11"><g class="cls-12"><g class="cls-13"><g class="cls-12"><rect class="cls-14" x="30.56" y="22.16" width="64.27" height="41"/></g></g></g></g></g></g><path id="SVGID-12" data-name="SVGID" class="cls-15" d="M83.24,41.21,72.66,36.78V37a10,10,0,1,1-20,0v-.24L42.09,41.21a9.73,9.73,0,0,0-6,9v7.36H89.2V50.19a9.73,9.73,0,0,0-6-9"/><path class="cls-16" d="M83.24,41.21,72.66,36.78V37s0,.08,0,.12c6.12,2.68,13.3,5,15.06,12.11a45.45,45.45,0,0,1,1.17,8.31h.32V50.18A9.73,9.73,0,0,0,83.24,41.21Z"/><path class="cls-16" d="M49.61,57.55c-.47-1.5-.91-3-1.28-4.51-.15-.3-.29-.61-.45-.91,0,1.8,0,3.61-.05,5.42Z"/><g class="cls-17"><g class="cls-10"><rect class="cls-18" x="49.27" y="23.51" width="26.84" height="21.15"/></g></g><g class="cls-19"><g class="cls-10"><rect class="cls-18" x="45.1" y="12.93" width="15.21" height="18.65"/></g></g><g class="cls-20"><rect class="cls-18" x="65.08" y="12.92" width="15.21" height="18.65"/></g><path class="cls-21" d="M63.7,34.63a5.45,5.45,0,0,0,3.74-1.48l2-1.95a6.91,6.91,0,0,0,1.84-4l.62-5.61a29.28,29.28,0,0,0,.19-3.37V12.54a8.6,8.6,0,0,0-8.6-8.6H61.91a8.6,8.6,0,0,0-8.6,8.6v5.71a29.28,29.28,0,0,0,.19,3.37l.62,5.61a6.84,6.84,0,0,0,1.84,4l2,1.95a5.5,5.5,0,0,0,3.75,1.48Z"/><path class="cls-22" d="M62.77,3.94h-.86a8.6,8.6,0,0,0-8.6,8.6v5.71a29.28,29.28,0,0,0,.19,3.37l.62,5.61a6.84,6.84,0,0,0,1.84,4l2,1.95a5.5,5.5,0,0,0,3.75,1.48h1.08V24.87L61.86,23l.91-8.93Z"/><path class="cls-23" d="M73.57,15.39c0-.89,0-1.71,0-2.47a9.54,9.54,0,0,0,.44-2.3c-.12-1.23-.88-1.74-1.61-2.76a8.76,8.76,0,0,0-1-1.11A9,9,0,0,0,67.94,4.1a7.28,7.28,0,0,0-3.63-1.77c-.73-.05-1.25.17-1.94.1-.27,0-.58-.26-.9-.27-1.36,0-3.36,1-4.54,1.72C55,5,52.16,7.5,51.87,10A3.08,3.08,0,0,0,51,12.52c.18,1.47.51,2.93.77,4.38a.5.5,0,0,0,0,.13c0,.45.09.91.15,1.4a1.23,1.23,0,0,1,.27,0,2.26,2.26,0,0,1,1.16.61c1.22-4.64.31-3.89.64-8a3.31,3.31,0,0,1,2-2.71c2.3-.89,3.28.56,6.58.56s4.27-1.45,6.57-.56a3.31,3.31,0,0,1,2,2.71c.33,4.15-.6,3.34.68,8.13h0a2.21,2.21,0,0,1,1.26-.74h.15c.07-.55.12-1.07.16-1.57a.46.46,0,0,0,.14-.33A11,11,0,0,0,73.57,15.39Z"/><path class="cls-24" d="M65.46,18.19a2,2,0,0,1,2-1.57,1.61,1.61,0,0,1,1.67,1.5,2,2,0,0,1-1.76,1.22A2.33,2.33,0,0,1,65.46,18.19Z"/><circle class="cls-25" cx="67.27" cy="17.98" r="1"/><circle cx="67.27" cy="17.98" r="0.38"/><circle class="cls-24" cx="67.87" cy="17.41" r="0.24"/><path class="cls-26" d="M60.74,16.06a.4.4,0,0,1-.15,0l-.75-.3-4,.21a.41.41,0,0,1-.42-.38.4.4,0,0,1,.38-.42L60,14.92l.92.37a.41.41,0,0,1,.22.52A.39.39,0,0,1,60.74,16.06Z"/><path class="cls-26" d="M64.7,16.06a.4.4,0,0,1-.15-.77l.91-.37,4.13.22a.4.4,0,0,1,.38.42.41.41,0,0,1-.42.38l-4-.21-.76.3A.32.32,0,0,1,64.7,16.06Z"/><path class="cls-24" d="M60.14,18.19a2,2,0,0,0-2-1.57,1.61,1.61,0,0,0-1.67,1.5,2,2,0,0,0,1.77,1.21A2.33,2.33,0,0,0,60.14,18.19Z"/><circle class="cls-25" cx="58.33" cy="17.98" r="0.99"/><circle cx="58.33" cy="17.98" r="0.38"/><circle class="cls-24" cx="57.82" cy="17.3" r="0.24"/><path id="SVGID-13" data-name="SVGID" class="cls-2" d="M67.12,27.51v0c0,1.2-2,2.18-4.33,2.18s-4.34-1-4.34-2.18v0Z"/><g class="cls-27"><path class="cls-24" d="M66.77,28.14a20.69,20.69,0,0,1-3.61.29,5.63,5.63,0,0,1-.71,0,19.52,19.52,0,0,1-3.71-.34c-.11,0-.19-.61-.19-.61H67S67,28.09,66.77,28.14Z"/></g><circle class="cls-28" cx="30.42" cy="12.32" r="11.69"/><path class="cls-29" d="M30.42,24.63A12.32,12.32,0,1,1,42.74,12.32,12.32,12.32,0,0,1,30.42,24.63Zm0-23.38A11.07,11.07,0,1,0,41.49,12.32,11.07,11.07,0,0,0,30.42,1.25Z"/><path class="cls-24" d="M27.65,11.76a2.81,2.81,0,0,0,2.24-1.89V7.48a1.41,1.41,0,0,1,2,1v2.35H34.4a1.18,1.18,0,0,1,1.16,1.37l-.63,4a1.25,1.25,0,0,1-1.23,1.06H29a1.42,1.42,0,0,1-1.42-1.43V11.73Z"/><rect class="cls-30" x="25.33" y="11.62" width="2.14" height="5.43" rx="0.18" ry="0.18"/><path class="cls-29" d="M35.51,11.08a1.49,1.49,0,0,0-1.11-.51H32.13V8.5a.38.38,0,0,0,0-.1,1.92,1.92,0,0,0-1-1.2,1.83,1.83,0,0,0-1.33,0,.26.26,0,0,0-.16.25V9.83a2.48,2.48,0,0,1-1.92,1.64.52.52,0,0,0-.4-.2H25.52a.54.54,0,0,0-.54.53v5.07a.54.54,0,0,0,.54.54h1.77a.54.54,0,0,0,.5-.37,1.72,1.72,0,0,0,1.21.51h4.7a1.53,1.53,0,0,0,1.51-1.3l.63-4A1.45,1.45,0,0,0,35.51,11.08ZM27.12,16.7H25.68V12h1.44Zm8.17-4.53-.64,4a1,1,0,0,1-.95.81H29a1.14,1.14,0,0,1-1.14-1.14V12a2.93,2.93,0,0,0,2.3-2.07.13.13,0,0,0,0-.06V7.69a1.1,1.1,0,0,1,.71,0,1.31,1.31,0,0,1,.69.83v2.3a.29.29,0,0,0,.28.28H34.4a.87.87,0,0,1,.68.32A.9.9,0,0,1,35.29,12.17Z"/></g></g></svg>