<svg xmlns="http://www.w3.org/2000/svg" xmlns:xlink="http://www.w3.org/1999/xlink" viewBox="0 0 78.77 57.29"><defs><style>.cls-1{fill:#cfcfce;}.cls-2{fill:#fff;}.cls-3{fill:#ca4b2f;}.cls-4{fill:#354557;}</style><symbol id="Entrepreneur_in_Action" data-name="Entrepreneur ​in Action" viewBox="0 0 78.77 57.29"><polyline id="_Path_" data-name="&lt;Path&gt;" class="cls-1" points="25.66 33.19 37.36 9.88 60.99 57.25 37.23 57.25"/><polygon id="_Path_2" data-name="&lt;Path&gt;" class="cls-2" points="43.86 22.72 42.01 24.57 40.16 21.8 37.38 26.42 34.6 21.8 32.75 24.57 30.9 22.72 37.38 9.76 43.85 22.73 43.86 22.72"/><g id="_Group_" data-name="&lt;Group&gt;"><polygon id="_Path_3" data-name="&lt;Path&gt;" class="cls-3" points="46.75 4.83 38.03 8.1 38.03 1.56 46.75 4.83"/><path class="cls-4" d="M32.36,25.13a.65.65,0,0,0,.51.18.61.61,0,0,0,.45-.27l1.31-2,2.27,3.78a.63.63,0,0,0,.53.3.65.65,0,0,0,.55-.3l2.27-3.78,1.29,2a.63.63,0,0,0,.46.27.6.6,0,0,0,.5-.18l1.23-1.23L60.35,57.23h1.31L44.5,22.65a.33.33,0,0,0-.07-.13L38.06,9.74V.62a.63.63,0,0,0-1.25,0v9.1L25.4,32.47,23,27.64a2.48,2.48,0,0,0-4.44,0L3.77,57.23h1.4l14.51-29a1.22,1.22,0,0,1,2.19,0L31,46.48l-5.4,10.81H51.48L40.33,35a2,2,0,0,0-3.56,0l-5.06,10.1L26.12,33.9l5-10Zm5.08-13.85,5.7,11.44-1,1-1.43-2.14a.65.65,0,0,0-.53-.28.61.61,0,0,0-.52.3l-2.24,3.73L35.2,21.59a.62.62,0,0,0-.52-.3.66.66,0,0,0-.54.28l-1.43,2.14-1-1Z"/><path class="cls-4" d="M10.38,53.28a1.42,1.42,0,0,0-.33-.21.61.61,0,0,0-.18,0,.9.9,0,0,0-.4,0,.61.61,0,0,0-.18,0,.91.91,0,0,0-.17.09L9,53.28a1,1,0,0,0-.21.33.87.87,0,0,0-.08.38.84.84,0,0,0,.08.38,1,1,0,0,0,.92.62,1,1,0,0,0,.38-.08,1.15,1.15,0,0,0,.33-.21,1,1,0,0,0,.21-.33,1,1,0,0,0,.08-.38,1.09,1.09,0,0,0-.29-.71Z"/><path class="cls-4" d="M14.08,53.28a1.1,1.1,0,0,0-.33-.21.61.61,0,0,0-.18,0,.86.86,0,0,0-.39,0,.59.59,0,0,0-.19,0,.91.91,0,0,0-.17.09l-.15.12a.91.91,0,0,0-.22.33,1,1,0,0,0-.08.38,1,1,0,0,0,.08.38.91.91,0,0,0,.22.33,1,1,0,0,0,.7.29,1,1,0,0,0,.39-.08,1,1,0,0,0,.32-.21,1.06,1.06,0,0,0,.22-.33,1,1,0,0,0,.07-.38,1,1,0,0,0-.07-.38A1.27,1.27,0,0,0,14.08,53.28Z"/><path class="cls-4" d="M17.78,53.28l-.15-.12a.91.91,0,0,0-.17-.09.67.67,0,0,0-.19,0,.86.86,0,0,0-.39,0,.67.67,0,0,0-.19,0,.91.91,0,0,0-.17.09l-.15.12a1.06,1.06,0,0,0-.22.33,1,1,0,0,0-.07.38,1,1,0,0,0,.07.38.91.91,0,0,0,.22.33,1,1,0,0,0,.71.29,1,1,0,0,0,.7-.29.91.91,0,0,0,.22-.33,1,1,0,0,0,.07-.38,1,1,0,0,0-.07-.38A.91.91,0,0,0,17.78,53.28Z"/><path class="cls-4" d="M21.48,53.28a1.18,1.18,0,0,0-.32-.21,1,1,0,0,0-.58,0,.67.67,0,0,0-.19,0l-.17.09-.15.12a1.06,1.06,0,0,0-.22.33,1,1,0,0,0-.07.38,1,1,0,0,0,.07.38,1.06,1.06,0,0,0,.22.33,1,1,0,0,0,.71.29,1,1,0,0,0,.7-.29.91.91,0,0,0,.22-.33,1,1,0,0,0,.08-.38,1,1,0,0,0-.08-.38A.91.91,0,0,0,21.48,53.28Z"/><path class="cls-4" d="M25.19,53.28a1,1,0,0,0-.91-.26.61.61,0,0,0-.18,0l-.18.09-.15.12a1.09,1.09,0,0,0-.29.71,1.22,1.22,0,0,0,.07.38,1.06,1.06,0,0,0,.22.33,1.15,1.15,0,0,0,.33.21.94.94,0,0,0,.76,0,1.15,1.15,0,0,0,.33-.21,1,1,0,0,0,.21-.33,1,1,0,0,0,.08-.38,1.09,1.09,0,0,0-.29-.71Z"/><path class="cls-4" d="M14.08,49.58a1,1,0,0,0-.32-.22,1,1,0,0,0-.58,0,1.06,1.06,0,0,0-.19,0c-.06,0-.12.06-.17.1a.44.44,0,0,0-.15.12.83.83,0,0,0-.22.33,1,1,0,0,0-.08.38,1,1,0,0,0,.08.38.8.8,0,0,0,.22.32.77.77,0,0,0,.32.22.84.84,0,0,0,.38.08,1,1,0,0,0,.71-.3.91.91,0,0,0,.22-.32,1,1,0,0,0,.07-.38,1,1,0,0,0-.07-.38A1,1,0,0,0,14.08,49.58Z"/><path class="cls-4" d="M17.78,49.58l-.15-.12c-.05,0-.11-.06-.17-.1a1.29,1.29,0,0,0-.19,0,1,1,0,0,0-.9.26,1,1,0,0,0-.3.71,1,1,0,0,0,.08.38.8.8,0,0,0,.22.32.94.94,0,0,0,.71.3,1,1,0,0,0,.7-.3.91.91,0,0,0,.22-.32,1,1,0,0,0,.08-.38,1,1,0,0,0-.08-.38A1,1,0,0,0,17.78,49.58Z"/><path class="cls-4" d="M21.48,49.58a1,1,0,0,0-1.09-.22,1,1,0,0,0-.32.22,1,1,0,0,0-.22.33,1,1,0,0,0-.07.38,1,1,0,0,0,.07.38.8.8,0,0,0,.22.32,1,1,0,0,0,.71.3.84.84,0,0,0,.38-.08.77.77,0,0,0,.32-.22.8.8,0,0,0,.22-.32,1,1,0,0,0,.08-.38,1,1,0,0,0-.08-.38A.83.83,0,0,0,21.48,49.58Z"/><path class="cls-4" d="M25.19,49.58a1.19,1.19,0,0,0-.33-.22,1,1,0,0,0-1.09.22,1.07,1.07,0,0,0-.29.71,1,1,0,0,0,.07.38.91.91,0,0,0,.22.32,1,1,0,0,0,1.42,0,.89.89,0,0,0,.21-.32,1,1,0,0,0,.08-.38,1,1,0,0,0-.08-.38A.93.93,0,0,0,25.19,49.58Z"/><path class="cls-4" d="M14.08,45.88l-.15-.13a.7.7,0,0,1-.17-.09l-.19,0a1.13,1.13,0,0,0-.58,0,1,1,0,0,0-.32.22,1,1,0,0,0-.22.32,1,1,0,0,0-.08.38,1,1,0,0,0,.08.4.84.84,0,0,0,.22.31,1,1,0,0,0,.7.31,1,1,0,0,0,.39-.08.9.9,0,0,0,.32-.23A1,1,0,0,0,14.3,47a1.12,1.12,0,0,0,0-.78A1.4,1.4,0,0,0,14.08,45.88Z"/><path class="cls-4" d="M17.78,45.88l-.15-.13-.17-.09-.19,0a1.13,1.13,0,0,0-.58,0,1,1,0,0,0-.32.22,1,1,0,0,0-.22.32,1.12,1.12,0,0,0,0,.78.84.84,0,0,0,.22.31,1,1,0,0,0,.71.31,1,1,0,0,0,.38-.08.9.9,0,0,0,.32-.23A1,1,0,0,0,18,47a1,1,0,0,0,.08-.4A1,1,0,0,0,18,46.2,1.14,1.14,0,0,0,17.78,45.88Z"/><path class="cls-4" d="M21.48,45.88a1,1,0,0,0-.32-.22,1.13,1.13,0,0,0-.58,0l-.19,0a.7.7,0,0,1-.17.09l-.15.13a1.14,1.14,0,0,0-.22.32,1.12,1.12,0,0,0,0,.78,1.08,1.08,0,0,0,.93.62,1,1,0,0,0,.38-.08.9.9,0,0,0,.32-.23A.84.84,0,0,0,21.7,47a1,1,0,0,0,.08-.4,1,1,0,0,0-.08-.38A1,1,0,0,0,21.48,45.88Z"/><path class="cls-4" d="M25.19,45.88a1.19,1.19,0,0,0-.33-.22,1.13,1.13,0,0,0-.58,0l-.18,0a.76.76,0,0,1-.18.09l-.15.13a1.4,1.4,0,0,0-.22.32,1.12,1.12,0,0,0,0,.78,1,1,0,0,0,.22.31,1,1,0,0,0,.32.23,1.09,1.09,0,0,0,.39.08,1,1,0,0,0,.38-.08,1,1,0,0,0,.33-.23A1,1,0,0,0,25.4,47a1,1,0,0,0,.08-.4,1,1,0,0,0-.08-.38A1.11,1.11,0,0,0,25.19,45.88Z"/><path class="cls-4" d="M16.15,43.28a1.08,1.08,0,0,0,.22.32,1,1,0,0,0,.71.28,1.21,1.21,0,0,0,.38-.06,1,1,0,0,0,.32-.22,1.08,1.08,0,0,0,.22-.32,1.05,1.05,0,0,0,.07-.4A1,1,0,0,0,18,42.5a1,1,0,0,0-.22-.31.61.61,0,0,0-.15-.13l-.17-.1-.19-.05a1,1,0,0,0-.9.28.84.84,0,0,0-.22.31,1,1,0,0,0-.07.38A1.05,1.05,0,0,0,16.15,43.28Z"/><path class="cls-4" d="M21.33,42.06l-.17-.1L21,41.91a.92.92,0,0,0-.9.28,1,1,0,0,0-.22.31,1,1,0,0,0-.07.38,1,1,0,0,0,.07.4,1,1,0,0,0,.22.32,1,1,0,0,0,.71.28,1,1,0,0,0,.7-.28,1.08,1.08,0,0,0,.22-.32,1.06,1.06,0,0,0,.08-.4,1,1,0,0,0-.3-.69A.47.47,0,0,0,21.33,42.06Z"/><path class="cls-4" d="M25,42.06l-.17-.1-.19-.05a.65.65,0,0,0-.39,0L24.1,42l-.18.1a.87.87,0,0,0-.15.13,1,1,0,0,0-.21.31,1,1,0,0,0-.08.38,1.24,1.24,0,0,0,.07.4,1.14,1.14,0,0,0,.22.32,1.19,1.19,0,0,0,.33.22,1.21,1.21,0,0,0,.38.06,1,1,0,0,0,.7-.28,1.08,1.08,0,0,0,.22-.32,1.06,1.06,0,0,0,.08-.4.94.94,0,0,0-.3-.69A.47.47,0,0,0,25,42.06Z"/><path class="cls-4" d="M16.37,39.9a1,1,0,0,0,.71.29,1,1,0,0,0,.7-.29,1.12,1.12,0,0,0,.22-.33,1,1,0,0,0,.07-.38,1,1,0,0,0-.29-.71.85.85,0,0,0-.32-.21.94.94,0,0,0-.77,0,.85.85,0,0,0-.32.21,1,1,0,0,0-.29.71,1,1,0,0,0,.07.38A1.12,1.12,0,0,0,16.37,39.9Z"/><path class="cls-4" d="M21.33,38.36a.4.4,0,0,0-.17-.09A.62.62,0,0,0,21,38.2a1,1,0,0,0-1.19,1,1,1,0,0,0,.07.38,1.36,1.36,0,0,0,.22.33,1,1,0,0,0,.32.21,1,1,0,0,0,.39.08,1,1,0,0,0,.7-.29,1.12,1.12,0,0,0,.22-.33,1,1,0,0,0,.08-.38,1,1,0,0,0-.3-.71A.44.44,0,0,0,21.33,38.36Z"/><path class="cls-4" d="M24.86,38.27a1,1,0,0,0-1.09.21,1,1,0,0,0-.29.71,1,1,0,0,0,.07.38,1.36,1.36,0,0,0,.22.33,1,1,0,0,0,1.42,0,1.31,1.31,0,0,0,.21-.33,1,1,0,0,0,.08-.38,1,1,0,0,0-.29-.71A1,1,0,0,0,24.86,38.27Z"/><path class="cls-4" d="M20.07,34.78a.87.87,0,0,0-.22.33,1,1,0,0,0-.07.38,1,1,0,0,0,.07.37,1,1,0,0,0,.22.34,1,1,0,0,0,.71.29,1.23,1.23,0,0,0,.38-.08,1.18,1.18,0,0,0,.32-.21,1,1,0,0,0,.22-.34,1,1,0,0,0,.08-.37,1,1,0,0,0-.3-.71A1,1,0,0,0,20.07,34.78Z"/><path class="cls-4" d="M27.8,47.52a.94.94,0,0,0,.76,0,1,1,0,0,0,.33-.23,1,1,0,0,0,.22-.31,1,1,0,0,0,.07-.4.87.87,0,0,0-.08-.38,1.11,1.11,0,0,0-.21-.32l-.15-.13a.76.76,0,0,1-.18-.09l-.18,0a1.13,1.13,0,0,0-.58,0,1.19,1.19,0,0,0-.33.22,1.11,1.11,0,0,0-.21.32,1,1,0,0,0-.08.38,1,1,0,0,0,.08.4,1,1,0,0,0,.21.31A1,1,0,0,0,27.8,47.52Z"/><path id="_Path_4" data-name="&lt;Path&gt;" class="cls-2" d="M75.14,14.65a2.77,2.77,0,0,0,.72-5.45,2.74,2.74,0,0,0,.2-1,2.77,2.77,0,0,0-2.77-2.78A2.72,2.72,0,0,0,72,5.71a3.69,3.69,0,1,0-6.53,3.42,2.77,2.77,0,0,0,.39,5.52Z"/><g id="_Group_2" data-name="&lt;Group&gt;"><path class="cls-4" d="M75.37,15.5H66.12A3.39,3.39,0,0,1,64.84,9a4.23,4.23,0,0,1-.28-1.49,4.32,4.32,0,0,1,8-2.32A3.39,3.39,0,0,1,76.92,8.4a3.49,3.49,0,0,1-.06.65,3.4,3.4,0,0,1-1.49,6.45ZM68.89,4.4a3.09,3.09,0,0,0-3.08,3.07A3,3,0,0,0,66.26,9a.62.62,0,0,1,0,.59.63.63,0,0,1-.48.35,2.15,2.15,0,0,0,.31,4.27h9.25A2.15,2.15,0,0,0,75.93,10a.61.61,0,0,1-.4-.32.65.65,0,0,1,0-.51,2,2,0,0,0,.16-.8,2.15,2.15,0,0,0-2.15-2.15,2.07,2.07,0,0,0-1,.25.64.64,0,0,1-.49,0,.59.59,0,0,1-.36-.33A3.09,3.09,0,0,0,68.89,4.4Z"/></g><path class="cls-2" d="M10.56,19.19A1.55,1.55,0,0,0,9,17.73a1.51,1.51,0,0,0-.84.25,2.75,2.75,0,0,0-5.42.64,2.42,2.42,0,0,0,0,.47,2.83,2.83,0,0,0,.66,5.58H9.58a2.82,2.82,0,0,0,1-5.48Z"/><path class="cls-4" d="M9.58,25.3H3.46a3.46,3.46,0,0,1-1.34-6.65v0a3.37,3.37,0,0,1,6.41-1.48,2.61,2.61,0,0,1,.48,0,2.19,2.19,0,0,1,2.11,1.65A3.45,3.45,0,0,1,9.58,25.3ZM5.5,16.5a2.12,2.12,0,0,0-2.12,2.13,2.19,2.19,0,0,0,0,.36.62.62,0,0,1-.47.71,2.21,2.21,0,0,0,.52,4.35H9.58a2.21,2.21,0,0,0,.76-4.28.63.63,0,0,1-.41-.54A1,1,0,0,0,8.5,18.5a.64.64,0,0,1-.57.06.66.66,0,0,1-.37-.44A2.12,2.12,0,0,0,5.5,16.5Z"/></g></symbol></defs><title>entrepreneur-in-action</title><g id="Layer_2" data-name="Layer 2"><g id="Layer_1-2" data-name="Layer 1"><use id="Entrepreneur_in_Action-3" data-name="Entrepreneur ​in Action" width="78.77" height="57.29" xlink:href="#Entrepreneur_in_Action"/></g></g></svg>