<svg xmlns="http://www.w3.org/2000/svg" xmlns:xlink="http://www.w3.org/1999/xlink" viewBox="0 0 104.22 54.1"><defs><style>.cls-1{fill:#e5e5e5;}.cls-2{fill:#ca4b2f;}.cls-3{fill:#18c0dc;}.cls-4{fill:#354557;}.cls-5{fill:#d3e3eb;}.cls-6{fill:#fff;}</style><symbol id="Ethics_across_time_and_culture" data-name="Ethics across time and culture" viewBox="0 0 104.22 54.1"><path class="cls-1" d="M94.87,18V54.08H76.4v-4a13.22,13.22,0,0,0-2.63-7.89,13.15,13.15,0,0,0-2.63,7.89v4H52.74V18Z"/><g id="_Group_" data-name="&lt;Group&gt;"><polygon class="cls-2" points="76.41 54.08 76.41 54.09 75.81 54.09 75.81 54.1 71.81 54.1 71.81 54.09 71.14 54.09 71.14 54.08 76.41 54.08"/></g><circle class="cls-3" cx="73.79" cy="34.58" r="3.5"/><g id="_Group_2" data-name="&lt;Group&gt;"><rect class="cls-1" x="80.99" y="2.28" width="10.51" height="15.77"/></g><g id="_Group_3" data-name="&lt;Group&gt;"><rect class="cls-1" x="56.25" y="1.98" width="10.51" height="15.77"/></g><path class="cls-4" d="M96.57,26.94H95.45v-9a.63.63,0,0,0-.63-.62H91.94V8.05h.25a.63.63,0,1,0,0-1.25h-.25v-4h.25a.63.63,0,1,0,0-1.25H79.93a.63.63,0,0,0,0,1.25h.25v4h-.25a.63.63,0,0,0,0,1.25h.25v9.26H67.42V8.05h.25a.63.63,0,0,0,0-1.25h-.25v-4h.25a.63.63,0,0,0,0-1.25H55.4a.63.63,0,0,0,0,1.25h.26v4H55.4a.63.63,0,0,0,0,1.25h.26v9.26H52.78a.63.63,0,0,0-.63.62v9H51a.63.63,0,0,0,0,1.25h1.13v25.9H53.4V28.19H66.17v25.9h1.25V28.19H80.18v25.9h1.25V28.19H94.2v25.9h1.25V28.19h1.12a.63.63,0,1,0,0-1.25ZM56.91,17.31V8.05h9.26v9.26ZM66.17,6.8H56.91v-4h9.26Zm0,20.14H63.91V24.06a.63.63,0,0,0-1.25,0v2.88H60.41V24.06a.63.63,0,0,0-1.25,0v2.88H56.91V24.06a.63.63,0,0,0-1.25,0v2.88H53.4V18.56H66.17Zm14,0h-4V24.06a.63.63,0,0,0-1.25,0v2.88H72.67V24.06a.63.63,0,0,0-1.25,0v2.88h-4V18.56H80.18ZM90.69,2.79v4H81.43v-4ZM81.43,8.05h9.26v9.26H81.43ZM94.2,26.94H91.94V24.06a.63.63,0,0,0-1.25,0v2.88H88.44V24.06a.63.63,0,0,0-1.25,0v2.88H84.94V24.06a.63.63,0,0,0-.63-.62.62.62,0,0,0-.62.62v2.88H81.43V18.56H94.2ZM73.8,41.83a.62.62,0,0,0-.5.25,13.82,13.82,0,0,0-2.75,8.26v3.75H71.8V50.34a12.56,12.56,0,0,1,2-6.79,12.56,12.56,0,0,1,2,6.79v3.75h1.25V50.34a13.89,13.89,0,0,0-2.75-8.26A.62.62,0,0,0,73.8,41.83Z"/><path class="cls-4" d="M59.79,10.3a.63.63,0,0,0-.63.63v3.5a.63.63,0,0,0,1.25,0v-3.5A.63.63,0,0,0,59.79,10.3Z"/><path class="cls-4" d="M84.31,32.2a.62.62,0,0,0-.62.62v3.51a.63.63,0,0,0,1.25,0V32.82A.63.63,0,0,0,84.31,32.2Z"/><path class="cls-4" d="M87.82,32.2a.63.63,0,0,0-.63.62v3.51a.63.63,0,0,0,1.25,0V32.82A.62.62,0,0,0,87.82,32.2Z"/><path class="cls-4" d="M59.79,37a.62.62,0,0,0,.62-.62V32.82a.63.63,0,0,0-1.25,0v3.51A.63.63,0,0,0,59.79,37Z"/><path class="cls-4" d="M63.29,37a.63.63,0,0,0,.63-.62V32.82a.63.63,0,0,0-1.25,0v3.51A.62.62,0,0,0,63.29,37Z"/><path class="cls-4" d="M56.91,36.33V32.82a.63.63,0,0,0-1.25,0v3.51a.63.63,0,0,0,1.25,0Z"/><path class="cls-4" d="M91.32,32.2a.62.62,0,0,0-.62.62v3.51a.63.63,0,0,0,1.25,0V32.82A.63.63,0,0,0,91.32,32.2Z"/><path class="cls-4" d="M84.94,52.7V54H83.69V52.7a.63.63,0,0,1,.62-.63A.63.63,0,0,1,84.94,52.7Z"/><path class="cls-4" d="M88.44,52.7V54H87.19V52.7a.63.63,0,1,1,1.25,0Z"/><path class="cls-4" d="M60.41,52.7V54H59.16V52.7a.63.63,0,1,1,1.25,0Z"/><path class="cls-4" d="M63.91,52.7V54H62.66V52.7a.63.63,0,1,1,1.25,0Z"/><path class="cls-4" d="M56.91,52.7V54H55.66V52.7a.63.63,0,1,1,1.25,0Z"/><path class="cls-4" d="M91.94,52.7V54H90.69V52.7a.63.63,0,1,1,1.25,0Z"/><path class="cls-4" d="M73.8,30.44a4.13,4.13,0,1,0,4.13,4.13A4.14,4.14,0,0,0,73.8,30.44Zm0,7a2.88,2.88,0,1,1,2.88-2.88A2.88,2.88,0,0,1,73.8,37.45Z"/><path class="cls-4" d="M63.29,10.3a.63.63,0,0,0-.62.63v3.5a.63.63,0,0,0,1.25,0v-3.5A.63.63,0,0,0,63.29,10.3Z"/><path class="cls-4" d="M84.31,15.05a.63.63,0,0,0,.63-.62v-3.5a.63.63,0,1,0-1.25,0v3.5A.62.62,0,0,0,84.31,15.05Z"/><path class="cls-4" d="M87.82,15.05a.62.62,0,0,0,.62-.62v-3.5a.63.63,0,1,0-1.25,0v3.5A.63.63,0,0,0,87.82,15.05Z"/><rect class="cls-5" x="53.4" y="54.09" width="3.13" height="0.01"/><rect class="cls-5" x="57.78" y="54.09" width="4.01" height="0.01"/><rect class="cls-5" x="63.04" y="54.09" width="3.13" height="0.01"/><rect class="cls-5" x="67.42" y="54.09" width="3.13" height="0.01"/><rect class="cls-5" x="71.8" y="54.09" width="4" height="0.01"/><rect class="cls-5" x="77.05" y="54.09" width="3.13" height="0.01"/><rect class="cls-5" x="81.43" y="54.09" width="3.13" height="0.01"/><rect class="cls-5" x="85.81" y="54.09" width="4.01" height="0.01"/><rect class="cls-5" x="91.07" y="54.09" width="3.13" height="0.01"/><path class="cls-1" d="M8.58,16.67a8.09,8.09,0,1,1,8.09-8.09A8.1,8.1,0,0,1,8.58,16.67Z"/><path class="cls-4" d="M8.58,0a8.59,8.59,0,1,0,8.59,8.58A8.58,8.58,0,0,0,8.58,0Zm0,16.17a7.59,7.59,0,1,1,7.59-7.59A7.6,7.6,0,0,1,8.58,16.17Z"/><path class="cls-4" d="M13.13,9.15h-.07L12,5.26a.22.22,0,0,0,.09-.17v0a.22.22,0,0,0-.21-.21H8.81V4.79a.21.21,0,0,0-.21-.21h0a.22.22,0,0,0-.21.21v.07H5.31a.22.22,0,0,0-.21.21v0a.22.22,0,0,0,.11.18L4.15,9.15H4.07a.14.14,0,0,0-.14.14,1.41,1.41,0,0,0,1.48,1.34A1.42,1.42,0,0,0,6.89,9.29a.15.15,0,0,0-.15-.14H6.67l-1-3.85H8.37v6.18H6.91a.33.33,0,0,0-.31.25H6a.34.34,0,0,0,0,.67h5.33a.34.34,0,0,0,0-.67H10.6a.33.33,0,0,0-.31-.25H8.81V5.3h2.78L10.53,9.15h-.07a.14.14,0,0,0-.14.14,1.41,1.41,0,0,0,1.47,1.34,1.41,1.41,0,0,0,1.48-1.34A.14.14,0,0,0,13.13,9.15Zm-6.55.29a1.15,1.15,0,0,1-1.17.89,1.15,1.15,0,0,1-1.18-.89H6.58Zm-.21-.29H4.45l1-3.5Zm5.43-3.5.95,3.5H10.84Zm0,4.68a1.15,1.15,0,0,1-1.17-.89H13A1.15,1.15,0,0,1,11.79,10.33Z"/><g id="_Group_4" data-name="&lt;Group&gt;"><rect class="cls-1" x="7.19" y="48.81" width="36.17" height="2.89"/></g><g id="_Group_5" data-name="&lt;Group&gt;"><rect class="cls-6" x="4.32" y="51.56" width="41.91" height="2.54"/></g><g id="_Group_6" data-name="&lt;Group&gt;"><polygon class="cls-1" points="25.27 14.74 44.81 27.04 5.74 27.04 25.27 14.74"/></g><g id="_Group_7" data-name="&lt;Group&gt;"><circle class="cls-3" cx="25.28" cy="22.75" r="1.45"/></g><rect class="cls-6" x="7.21" y="27.26" width="36.08" height="4"/><polygon class="cls-6" points="8.71 34.17 9.39 34.17 9.39 45.61 8.71 45.61 8.71 48.59 13.04 48.59 13.04 45.61 12.36 45.61 12.36 34.17 13.04 34.17 13.04 31.51 8.71 31.51 8.71 34.17"/><polygon class="cls-6" points="15.83 34.17 16.52 34.17 16.52 45.61 15.83 45.61 15.83 48.59 20.17 48.59 20.17 45.61 19.48 45.61 19.48 34.17 20.17 34.17 20.17 31.51 15.83 31.51 15.83 34.17"/><polygon class="cls-6" points="23.16 34.17 23.85 34.17 23.85 45.61 23.16 45.61 23.16 48.59 27.5 48.59 27.5 45.61 26.81 45.61 26.81 34.17 27.5 34.17 27.5 31.51 23.16 31.51 23.16 34.17"/><polygon class="cls-6" points="30.33 34.17 31.02 34.17 31.02 45.61 30.33 45.61 30.33 48.59 34.67 48.59 34.67 45.61 33.98 45.61 33.98 34.17 34.67 34.17 34.67 31.51 30.33 31.51 30.33 34.17"/><polygon class="cls-6" points="41.88 34.17 41.88 31.51 37.54 31.51 37.54 34.17 38.23 34.17 38.23 45.61 37.54 45.61 37.54 48.59 41.88 48.59 41.88 45.61 41.19 45.61 41.19 34.17 41.88 34.17"/><path class="cls-4" d="M23.38,22.75a1.9,1.9,0,1,0,1.9-1.9A1.9,1.9,0,0,0,23.38,22.75Zm1.9-1a1,1,0,0,1,0,2,1,1,0,1,1,0-2Z"/><path class="cls-4" d="M46.25,51.23H43.81V48.79a.45.45,0,0,0-.45-.45h-1V45.9a.45.45,0,0,0-.45-.45h-.27V34.78h.27a.46.46,0,0,0,.45-.46V31.88h1a.45.45,0,0,0,.45-.45V27.54h1a.46.46,0,0,0,.44-.32.45.45,0,0,0-.2-.51L25.51,14.41a.46.46,0,0,0-.48,0L5.5,26.71a.45.45,0,0,0,.24.83h1v3.89a.47.47,0,0,0,.47.45h1v2.44a.47.47,0,0,0,.46.46h.27V45.45H8.64a.46.46,0,0,0-.46.45v2.44h-1a.47.47,0,0,0-.47.45v2.44H4.29a.46.46,0,0,0-.45.46V54.1h.9v-2H45.8v2h.9V51.69A.46.46,0,0,0,46.25,51.23Zm-21-35.9,18,11.31H40.06L25.52,17.3a.48.48,0,0,0-.49,0L10.48,26.64H7.31ZM38.39,26.64H12.16l13.11-8.42ZM7.64,31V27.54H42.91V31ZM41.47,46.35v2H38v-2Zm-2.73-.9V34.78h2V45.45ZM38,33.87v-2h3.45v2ZM34.68,45.45h-.27V34.78h.27a.47.47,0,0,0,.46-.46V31.88h2v2.44a.46.46,0,0,0,.45.46h.27V45.45h-.27a.45.45,0,0,0-.45.45v2.44h-2V45.9A.46.46,0,0,0,34.68,45.45Zm-.46.9v2H30.79v-2Zm-2.71-.9V34.78h2V45.45Zm-.72-11.58v-2h3.43v2ZM27.45,45.45h-.27V34.78h.27a.45.45,0,0,0,.44-.46V31.88h2v2.44a.45.45,0,0,0,.44.46h.28V45.45h-.28a.45.45,0,0,0-.44.45v2.44h-2V45.9A.44.44,0,0,0,27.45,45.45Zm-.46.9v2H23.55v-2Zm-2.71-.9V34.78h2V45.45Zm-.73-11.58v-2H27v2ZM20.22,45.45H20V34.78h.27a.45.45,0,0,0,.44-.46V31.88h2v2.44a.45.45,0,0,0,.44.46h.27V45.45H23.1a.44.44,0,0,0-.44.45v2.44h-2V45.9A.44.44,0,0,0,20.22,45.45Zm-.47.9v2H16.32v-2ZM17,45.45V34.78h2V45.45Zm-.72-11.58v-2h3.43v2ZM13,45.45H12.7V34.78H13a.47.47,0,0,0,.46-.46V31.88h2v2.44a.47.47,0,0,0,.46.46h.27V45.45h-.27a.46.46,0,0,0-.46.45v2.44h-2V45.9A.46.46,0,0,0,13,45.45Zm-.45.9v2H9.08v-2Zm-2.71-.9V34.78h2V45.45ZM9.08,33.87v-2h3.44v2ZM42.91,51.23H7.64v-2H42.91Z"/><path class="cls-4" d="M11.94,29a.24.24,0,0,0-.1.14.33.33,0,0,0,0,.17.39.39,0,0,0,0,.18.33.33,0,0,0,.1.14.3.3,0,0,0,.14.1.36.36,0,0,0,.18,0,.42.42,0,0,0,.31-.13.49.49,0,0,0,.11-.14.55.55,0,0,0,0-.18.4.4,0,0,0-.13-.31A.43.43,0,0,0,11.94,29Z"/><path class="cls-4" d="M16.27,29a.44.44,0,0,0-.13.31.58.58,0,0,0,0,.18.42.42,0,0,0,.09.14.4.4,0,0,0,.15.1.34.34,0,0,0,.18,0,.36.36,0,0,0,.17,0,.45.45,0,0,0,.14-.1.49.49,0,0,0,.11-.14.55.55,0,0,0,0-.18.4.4,0,0,0-.13-.31A.45.45,0,0,0,16.27,29Z"/><path class="cls-4" d="M20.61,29a.44.44,0,0,0-.13.31.46.46,0,0,0,.13.32.49.49,0,0,0,.15.1.34.34,0,0,0,.18,0,.36.36,0,0,0,.17,0,.65.65,0,0,0,.15-.1.42.42,0,0,0,.09-.14.58.58,0,0,0,0-.18.49.49,0,0,0-.13-.31A.46.46,0,0,0,20.61,29Z"/><path class="cls-4" d="M25,29a.41.41,0,0,0-.14.31.58.58,0,0,0,0,.18.45.45,0,0,0,.1.14.42.42,0,0,0,.32.13.45.45,0,0,0,.32-.13.42.42,0,0,0,.09-.14.39.39,0,0,0,0-.18A.44.44,0,0,0,25.6,29,.45.45,0,0,0,25,29Z"/><path class="cls-4" d="M29.3,29a.41.41,0,0,0-.14.31.58.58,0,0,0,0,.18.52.52,0,0,0,.24.24.36.36,0,0,0,.18,0,.34.34,0,0,0,.17,0,.65.65,0,0,0,.15-.1.42.42,0,0,0,.09-.14.39.39,0,0,0,0-.18.44.44,0,0,0-.13-.31A.45.45,0,0,0,29.3,29Z"/><path class="cls-4" d="M33.63,29a.44.44,0,0,0-.13.31.58.58,0,0,0,0,.18.67.67,0,0,0,.09.14.54.54,0,0,0,.16.1.31.31,0,0,0,.17,0,.34.34,0,0,0,.17,0,.65.65,0,0,0,.15-.1.71.71,0,0,0,.1-.14.57.57,0,0,0,0-.18.44.44,0,0,0-.13-.31A.46.46,0,0,0,33.63,29Z"/><path class="cls-4" d="M38,29a.44.44,0,0,0-.13.31.46.46,0,0,0,.13.32.54.54,0,0,0,.16.1.31.31,0,0,0,.17,0,.34.34,0,0,0,.17,0,.65.65,0,0,0,.15-.1.42.42,0,0,0,.09-.14.39.39,0,0,0,0-.18.44.44,0,0,0-.13-.31A.46.46,0,0,0,38,29Z"/><circle class="cls-2" cx="97.82" cy="44.48" r="5.82"/><path class="cls-4" d="M97.78,38a6.43,6.43,0,0,0-.56,12.84V54h1.13V50.87A6.43,6.43,0,0,0,97.78,38Zm.57,11.7V47.49a3.09,3.09,0,0,0,2.52-3,.57.57,0,0,0-1.14,0,2,2,0,0,1-1.38,1.86V44.46a.57.57,0,0,0-1.13,0v1.86a2,2,0,0,1-1.38-1.86.57.57,0,0,0-1.14,0,3.09,3.09,0,0,0,2.52,3v2.24a5.3,5.3,0,1,1,1.13,0Z"/></symbol></defs><title>ethics-across-time-and-cultures</title><g id="Layer_2" data-name="Layer 2"><g id="Layer_1-2" data-name="Layer 1"><use id="Ethics_across_time_and_culture-3" data-name="Ethics across time and culture" width="104.22" height="54.1" xlink:href="#Ethics_across_time_and_culture"/></g></g></svg>