<svg xmlns="http://www.w3.org/2000/svg" xmlns:xlink="http://www.w3.org/1999/xlink" viewBox="0 0 106.51 54.67"><defs><style>.cls-1,.cls-14,.cls-19{fill:#7a4d28;}.cls-1{clip-rule:evenodd;}.cls-10,.cls-2,.cls-3{fill:#354557;}.cls-12,.cls-14,.cls-15,.cls-16,.cls-17,.cls-2,.cls-21,.cls-3,.cls-4,.cls-5{fill-rule:evenodd;}.cls-2{opacity:0.3;}.cls-4{fill:none;}.cls-12,.cls-5{fill:#1e2830;}.cls-17,.cls-5{opacity:0.5;}.cls-6{isolation:isolate;}.cls-7{fill:#e5e5e5;}.cls-8{fill:#cccccb;}.cls-9{fill:#cfcfce;}.cls-11{fill:url(#New_Gradient_Swatch);}.cls-13{fill:url(#New_Gradient_Swatch-2);}.cls-15{fill:#d34f32;}.cls-16{fill:#ca4b2f;}.cls-17{fill:#f47540;}.cls-18{clip-path:url(#clip-path);}.cls-20{clip-path:url(#clip-path-2);}.cls-21{fill:#3f3029;}</style><linearGradient id="New_Gradient_Swatch" x1="72.49" y1="51.36" x2="79.1" y2="51.36" gradientUnits="userSpaceOnUse"><stop offset="0.35" stop-color="#1e2830" stop-opacity="0"/><stop offset="0.57" stop-color="#1e2830" stop-opacity="0.46"/><stop offset="0.82" stop-color="#1e2830" stop-opacity="0.86"/><stop offset="1" stop-color="#1e2830"/></linearGradient><linearGradient id="New_Gradient_Swatch-2" x1="74.72" y1="1.08" x2="76.88" y2="1.08" xlink:href="#New_Gradient_Swatch"/><clipPath id="clip-path"><path class="cls-1" d="M32.07,24.65l-.37-.59a1.67,1.67,0,0,0-1.11-.75.94.94,0,0,0-1.1,1.12l.45,2.24a2.6,2.6,0,0,0,1.85,2l.66.19Z"/></clipPath><clipPath id="clip-path-2"><path class="cls-1" d="M42.07,28.85l.66-.19a2.64,2.64,0,0,0,1.85-2L45,24.41a1,1,0,0,0-1.11-1.12,1.63,1.63,0,0,0-1.1.75l-.37.6Z"/></clipPath><symbol id="Ethical_Considerations" data-name="Ethical Considerations" viewBox="0 0 106.51 54.67"><path class="cls-2" d="M106.51,54.67H0C8.79,44.07,29.4,39.26,52.43,44,75.85,48.89,98.63,44,106.51,54.67Z"/><path class="cls-3" d="M90.49,47.66a133.68,133.68,0,0,1-22.65,4.21,283.7,283.7,0,0,1-30.58,1C27,52.78,17,52.05,7.46,48.53A27.37,27.37,0,0,0,0,54.67H106.51C103.31,50.32,97.65,48.56,90.49,47.66Z"/><path class="cls-4" d="M106.51,54.67H0C8.79,44.07,29.4,39.26,52.43,44,75.85,48.89,98.63,44,106.51,54.67Z"/><polygon class="cls-5" points="101.11 50.38 79.12 51.34 75.41 51.35 74.65 50.82 76.91 51.04 100.11 49.92 101.11 50.38"/><g class="cls-6"><polygon class="cls-7" points="94.87 7.89 97.58 12.62 94.87 17.35 76.9 17.78 76.9 7.47 94.87 7.89"/><polygon class="cls-8" points="76.9 17.78 76.48 17.74 76.48 7.51 76.9 7.47 76.9 17.78"/></g><g class="cls-6"><polygon class="cls-7" points="74.7 2.29 74.7 12.49 59.32 11.95 57.07 7.4 59.32 2.83 74.7 2.29"/><polygon class="cls-9" points="74.7 2.29 75.32 2.33 75.32 12.46 74.7 12.49 74.7 2.29"/></g><path class="cls-10" d="M75.8,0h0a1.09,1.09,0,0,1,1.09,1.09v50.1a0,0,0,0,1,0,0H74.72a0,0,0,0,1,0,0V1.09A1.09,1.09,0,0,1,75.8,0Z"/><path class="cls-10" d="M79.12,51.34H72.49a.58.58,0,0,1,.57-.57h5.5A.57.57,0,0,1,79.12,51.34Z"/><rect class="cls-11" x="72.49" y="51.35" width="6.62" height="0.03"/><path class="cls-12" d="M78.54,50.77H76.89V1.08h0A1.1,1.1,0,0,0,75.77,0a1.65,1.65,0,0,1,.68,1.1h0V50.8h0v.13h2a.32.32,0,0,1,.33.32v.1h.33A.57.57,0,0,0,78.54,50.77Z"/><path class="cls-13" d="M76.87.91a1.68,1.68,0,0,1-1.07.24A1.77,1.77,0,0,1,74.73.92a.13.13,0,0,0,0,.06c0,.15.49.27,1.08.27s1.06-.13,1.08-.27A.09.09,0,0,0,76.87.91Z"/><path class="cls-14" d="M57.37,54.67V49.12a7.32,7.32,0,0,0-4.49-6.75l-8-3.35A3,3,0,0,1,43,36.24v-4H31.74v4A3,3,0,0,1,29.89,39l-8,3.35a7.32,7.32,0,0,0-4.49,6.75v5.55Z"/><path class="cls-15" d="M52.88,42.37l-8-3.35a2.9,2.9,0,0,1-.68-.4l-6.7.47a45.29,45.29,0,0,1-7-.39c-.22,0-.37.24-.57.32l-8,3.35a7.32,7.32,0,0,0-4.49,6.75v5.55h40V49.12a7.32,7.32,0,0,0-4.49-6.75"/><path class="cls-16" d="M26.17,51.2a5.69,5.69,0,0,1-.32,1.14,5.21,5.21,0,0,1-.72,1.57v.14c0,.21,0,.41,0,.62h1.4c0-1.51,0-3,0-4.52A10.77,10.77,0,0,1,26.17,51.2Z"/><path class="cls-16" d="M52.88,42.37l-5.05-2.11a14.11,14.11,0,0,1,3,5.24,20.57,20.57,0,0,1,.77,6.76,17.57,17.57,0,0,1-.36,2.41h6.12V49.12A7.32,7.32,0,0,0,52.88,42.37Z"/><path class="cls-17" d="M31,39.46c9.41,2,19.77-1.43,25.66,8.27.23.39.45.79.67,1.18a7.31,7.31,0,0,0-4.47-6.54l-8-3.35a2.9,2.9,0,0,1-.68-.4l-6.7.47a45.29,45.29,0,0,1-7-.39c-.22,0-.37.24-.57.32l-.8.34A5.82,5.82,0,0,1,31,39.46Z"/><path class="cls-14" d="M32.07,24.65l-.37-.59a1.67,1.67,0,0,0-1.11-.75.94.94,0,0,0-1.1,1.12l.45,2.24a2.6,2.6,0,0,0,1.85,2l.66.19Z"/><g class="cls-18"><rect class="cls-19" x="25.23" y="19.05" width="11.46" height="14.06"/></g><path class="cls-14" d="M42.07,28.85l.66-.19a2.64,2.64,0,0,0,1.85-2L45,24.41a1,1,0,0,0-1.11-1.12,1.63,1.63,0,0,0-1.1.75l-.37.6Z"/><g class="cls-20"><rect class="cls-19" x="37.83" y="19.03" width="11.46" height="14.06"/></g><path class="cls-21" d="M42.67,16.18c-1-1.27-3.31-2.17-6.07-2.17l-1.36.33c-3.61,0-5.3-.32-5.3,1.59l-.69,3.28a11.58,11.58,0,0,0,.16,1.86l.68,1.53v1.27a17.16,17.16,0,0,0,.15,2.26l.65,3.63a10.8,10.8,0,0,0,.9,2.81l1.82,1.29a4.48,4.48,0,0,0,2.85,1H38a4.48,4.48,0,0,0,2.84-1l1.83-1.34c.79-.37.54-1.5,1.06-2.65l.49-3.74a19,19,0,0,0,.14-2.26V20A5.39,5.39,0,0,0,42.67,16.18Z"/></symbol></defs><title>ethical-considerations</title><g id="Layer_2" data-name="Layer 2"><g id="Layer_1-2" data-name="Layer 1"><use id="Ethical_Considerations-3" data-name="Ethical Considerations" width="106.51" height="54.67" xlink:href="#Ethical_Considerations"/></g></g></svg>