<svg xmlns="http://www.w3.org/2000/svg" xmlns:xlink="http://www.w3.org/1999/xlink" viewBox="0 0 110.13 58.41"><defs><style>.cls-1{fill:none;}.cls-1,.cls-3,.cls-4{clip-rule:evenodd;}.cls-2{fill:#a11d21;}.cls-17,.cls-19,.cls-3{fill:#a63b2c;}.cls-21,.cls-23,.cls-4{fill:#fff;}.cls-10,.cls-30,.cls-5,.cls-6,.cls-7,.cls-8,.cls-9{fill:#354557;}.cls-6{opacity:0.3;}.cls-7{opacity:0.2;}.cls-8{opacity:0.1;}.cls-9{opacity:0.05;}.cls-10{opacity:0.6;}.cls-11{fill:#f47540;}.cls-12{clip-path:url(#clip-path);}.cls-13,.cls-15{fill:#e1bfa0;}.cls-14{clip-path:url(#clip-path-2);}.cls-15,.cls-16,.cls-17,.cls-21,.cls-26,.cls-27,.cls-29,.cls-30{fill-rule:evenodd;}.cls-16{fill:#ca4b2f;}.cls-18{clip-path:url(#clip-path-3);}.cls-20{clip-path:url(#clip-path-4);}.cls-22{clip-path:url(#clip-path-5);}.cls-24{clip-path:url(#clip-path-6);}.cls-25{clip-path:url(#clip-path-7);}.cls-26{fill:#f7dec1;}.cls-27{fill:#e6ceb8;}.cls-28{clip-path:url(#clip-path-8);}.cls-29{fill:#604237;}.cls-31{clip-path:url(#clip-path-9);}.cls-32{fill:#18c0dc;}.cls-33{fill:#e5e5e5;}.cls-34{fill:#d8d8d8;}.cls-35{fill:#d6d6d6;}.cls-36{fill:#d34f32;}</style><clipPath id="clip-path"><path class="cls-1" d="M52.27,21.52l-.49-.78a2.16,2.16,0,0,0-1.45-1,1.25,1.25,0,0,0-1.46,1.48l.59,2.95a3.46,3.46,0,0,0,2.44,2.64l.87.25Z"/></clipPath><clipPath id="clip-path-2"><path class="cls-1" d="M68.67,27.07l.86-.25A3.42,3.42,0,0,0,72,24.18l.6-2.95a1.26,1.26,0,0,0-1.46-1.48,2.21,2.21,0,0,0-1.46,1l-.48.78Z"/></clipPath><clipPath id="clip-path-3"><path class="cls-3" d="M68.46,35.26a21,21,0,0,1-3.13,4.07l-.47.16a4.82,4.82,0,0,0-3,3.09l-1.15,3.69,2.16-3.35a2.79,2.79,0,0,1,2.45-1.26l4,5.6a17.84,17.84,0,0,0,1.41-7.37v-2a7.44,7.44,0,0,1-2.28-2.64"/></clipPath><clipPath id="clip-path-4"><path class="cls-3" d="M56.58,39.49l-.48-.16a23.9,23.9,0,0,1-2.47-3l-1.31,0a7.32,7.32,0,0,1-1.63,1.61v2a17.84,17.84,0,0,0,1.41,7.37l4-5.6A2.71,2.71,0,0,1,58.72,43l2,3.32-1.16-3.69a4.8,4.8,0,0,0-3-3.09"/></clipPath><clipPath id="clip-path-5"><path class="cls-4" d="M69.33,44.93h0a17.68,17.68,0,0,0,1.41-7.37l-2.21-2.41a20.67,20.67,0,0,1-3.2,4.19l4,5.59Z"/></clipPath><clipPath id="clip-path-6"><path class="cls-4" d="M52.1,44.92l4-5.59a20,20,0,0,1-3.2-4.19l-2.22,2.41a17.84,17.84,0,0,0,1.41,7.37h0Z"/></clipPath><clipPath id="clip-path-7"><path class="cls-1" d="M53.28,33.54a7,7,0,0,0,.75,1l2,1.93a5.41,5.41,0,0,0,3.72,1.47h2a5.4,5.4,0,0,0,3.72-1.47l2-1.93a6.36,6.36,0,0,0,.76-1V28.9H53.28Z"/></clipPath><clipPath id="clip-path-8"><path class="cls-1" d="M52.11,13.59v-.05a3.25,3.25,0,0,1,2-2.69c2.28-.88,3.25.56,6.52.56s4.25-1.44,6.53-.56a3.28,3.28,0,0,1,2,2.69v.05H70a8.49,8.49,0,0,0-3.23-6.51,12.52,12.52,0,0,0-6.15-1.5A12.82,12.82,0,0,0,55,6.83a8.5,8.5,0,0,0-3.55,6.76Z"/></clipPath><clipPath id="clip-path-9"><path id="SVGID" class="cls-2" d="M65,30V30c0,1.2-1.95,2.17-4.34,2.17s-4.33-1-4.33-2.17V30Z"/></clipPath><symbol id="Are_you_Ready_" data-name="Are you Ready?" viewBox="0 0 110.13 58.41"><circle class="cls-5" cx="18.69" cy="54.85" r="1.71"/><circle class="cls-5" cx="18.69" cy="48.31" r="1.71"/><circle class="cls-6" cx="18.69" cy="41.78" r="1.71"/><circle class="cls-7" cx="18.69" cy="35.24" r="1.71"/><circle class="cls-8" cx="18.69" cy="28.7" r="1.71"/><circle class="cls-9" cx="18.69" cy="22.16" r="1.71"/><circle class="cls-5" cx="8.2" cy="54.85" r="1.71"/><circle class="cls-10" cx="8.2" cy="48.31" r="1.71"/><circle class="cls-6" cx="8.2" cy="41.78" r="1.71"/><circle class="cls-5" cx="28.64" cy="54.85" r="1.71"/><circle class="cls-5" cx="28.64" cy="48.31" r="1.71"/><circle class="cls-6" cx="28.64" cy="41.78" r="1.71"/><circle class="cls-7" cx="28.64" cy="35.24" r="1.71"/><circle class="cls-8" cx="28.64" cy="28.7" r="1.71"/><circle class="cls-9" cx="28.64" cy="22.16" r="1.71"/><circle class="cls-5" cx="38.59" cy="54.85" r="1.71"/><circle class="cls-5" cx="38.59" cy="48.31" r="1.71"/><circle class="cls-6" cx="38.59" cy="41.78" r="1.71"/><circle class="cls-7" cx="38.59" cy="35.24" r="1.71"/><circle class="cls-5" cx="48.55" cy="54.85" r="1.71"/><circle class="cls-5" cx="48.55" cy="48.31" r="1.71"/><circle class="cls-6" cx="48.55" cy="41.78" r="1.71"/><circle class="cls-7" cx="48.55" cy="35.24" r="1.71"/><circle class="cls-8" cx="48.55" cy="28.7" r="1.71"/><circle class="cls-5" cx="58.5" cy="54.85" r="1.71"/><circle class="cls-10" cx="58.5" cy="48.31" r="1.71"/><circle class="cls-6" cx="58.5" cy="41.78" r="1.71"/><circle class="cls-7" cx="58.5" cy="35.24" r="1.71"/><circle class="cls-8" cx="58.5" cy="28.7" r="1.71"/><circle class="cls-9" cx="58.5" cy="22.16" r="1.71"/><path class="cls-11" d="M110.09,12.47h-3A4.13,4.13,0,0,0,103,8.34v-3A7.14,7.14,0,0,1,110.09,12.47Z"/><path class="cls-5" d="M103,19.63A7.17,7.17,0,1,1,103,5.3v3a4.17,4.17,0,1,0,4.16,4.17h3A7.17,7.17,0,0,1,103,19.63Z"/><g class="cls-12"><rect class="cls-13" x="43.26" y="14.15" width="15.09" height="18.51"/></g><g class="cls-14"><rect class="cls-13" x="63.08" y="14.15" width="15.09" height="18.51"/></g><path class="cls-15" d="M87,58.41v-7.3a9.63,9.63,0,0,0-5.91-8.89L70.59,37.81a4,4,0,0,1-2.43-3.66V28.9H53.28v5.25a4,4,0,0,1-2.44,3.66L40.33,42.22a9.63,9.63,0,0,0-5.91,8.89v7.3Z"/><path class="cls-16" d="M81.11,42.22,70.59,37.81a4,4,0,0,1-2.22-2.41,18.2,18.2,0,0,1-2.11,2.9c-.29.34-.6.68-.93,1l-.47.16a4.82,4.82,0,0,0-3,3.09l-.22.7-.93,3-1.16-3.69a4.8,4.8,0,0,0-3-3.09l-.48-.16L56,39.15c-.37-.39-.71-.78-1-1.16l-.27-.33c-.36-.44-.7-.89-1-1.34-.21-.3-.39-.61-.57-.92a4,4,0,0,1-2.23,2.41L40.33,42.22a9.63,9.63,0,0,0-5.91,8.89v7.3H87v-7.3a9.63,9.63,0,0,0-5.91-8.89"/><path class="cls-17" d="M68.46,35.26a21,21,0,0,1-3.13,4.07l-.47.16a4.82,4.82,0,0,0-3,3.09l-1.15,3.69,2.16-3.35a2.79,2.79,0,0,1,2.45-1.26l4,5.6a17.84,17.84,0,0,0,1.41-7.37v-2a7.44,7.44,0,0,1-2.28-2.64"/><g class="cls-18"><rect class="cls-19" x="55.13" y="29.68" width="21.19" height="23.16"/></g><path class="cls-17" d="M56.58,39.49l-.48-.16a23.9,23.9,0,0,1-2.47-3l-1.31,0a7.32,7.32,0,0,1-1.63,1.61v2a17.84,17.84,0,0,0,1.41,7.37l4-5.6A2.71,2.71,0,0,1,58.72,43l2,3.32-1.16-3.69a4.8,4.8,0,0,0-3-3.09"/><g class="cls-20"><rect class="cls-19" x="45.11" y="30.71" width="21.19" height="22.13"/></g><path class="cls-21" d="M69.33,44.93h0a17.68,17.68,0,0,0,1.41-7.37l-2.21-2.41a20.67,20.67,0,0,1-3.2,4.19l4,5.59Z"/><g class="cls-22"><rect class="cls-23" x="59.75" y="29.56" width="16.58" height="20.95"/></g><path class="cls-21" d="M52.1,44.92l4-5.59a20,20,0,0,1-3.2-4.19l-2.22,2.41a17.84,17.84,0,0,0,1.41,7.37h0Z"/><g class="cls-24"><rect class="cls-23" x="45.11" y="29.56" width="16.58" height="20.95"/></g><g class="cls-25"><rect class="cls-13" x="47.69" y="23.31" width="26.05" height="20.18"/></g><path class="cls-26" d="M61.66,35.9a5.42,5.42,0,0,0,3.72-1.48l2-1.92a6.8,6.8,0,0,0,1.82-3.94L69.79,23A31.2,31.2,0,0,0,70,19.64V14a8.54,8.54,0,0,0-8.54-8.54H59.88A8.53,8.53,0,0,0,51.35,14v5.66A28.81,28.81,0,0,0,51.54,23l.62,5.57A6.8,6.8,0,0,0,54,32.5l2,1.92a5.42,5.42,0,0,0,3.72,1.48Z"/><path class="cls-27" d="M60.84,5.44h-1A8.53,8.53,0,0,0,51.35,14v5.66A28.81,28.81,0,0,0,51.54,23l.62,5.57A6.8,6.8,0,0,0,54,32.5l2,1.92a5.42,5.42,0,0,0,3.72,1.48h1.16V27.72L60,26.56l.79-5.28Z"/><g class="cls-28"><rect class="cls-13" x="45.83" width="29.77" height="19.17"/></g><path class="cls-29" d="M69.6,8.42c-1.75-2.48-5.08-3.95-9-3.95s-7.21,1.47-9,4-2.37,5.36-1.62,11.32a.82.82,0,0,1,.27,0,2.23,2.23,0,0,1,1.15.61c1.21-4.6.31-3.86.64-7.94a3.29,3.29,0,0,1,2-2.69c2.28-.88,3.25.56,6.52.56s4.25-1.44,6.53-.56a3.31,3.31,0,0,1,2,2.69c.33,4.12-.6,3.32.67,8.06h0a2.16,2.16,0,0,1,1.25-.73h.15c.69-5.79,0-8.95-1.66-11.32"/><path class="cls-30" d="M70.41,18.05c-.94-.05-4.14-.24-5.64-.24-1.78,0-3,.85-3.75.85h-.61c-.7,0-2-.85-3.74-.85-1.51,0-4.7.19-5.65.24a.28.28,0,0,0-.26.29V19a.42.42,0,0,0,.24.38,1.13,1.13,0,0,1,.58.76c.24.8.59,3.59,2.71,4s3.83-.09,4.51-1.17.77-2.88,1.61-2.88H61c.85,0,.93,1.81,1.61,2.88s2.4,1.63,4.51,1.17,2.48-3.24,2.72-4a1.1,1.1,0,0,1,.57-.76.43.43,0,0,0,.25-.38v-.62a.29.29,0,0,0-.27-.29M58.27,22.71a3.45,3.45,0,0,1-2.65,1.16,4.09,4.09,0,0,1-1.23-.19,2.5,2.5,0,0,1-1.46-1.32,5.27,5.27,0,0,1-.47-3c.18-.56,1.07-.84,2.65-.84,1.85,0,3.7.51,4,1.08a5.23,5.23,0,0,1-.79,3.11m10.23-.35a2.51,2.51,0,0,1-1.45,1.32,4.15,4.15,0,0,1-1.24.19,3.44,3.44,0,0,1-2.64-1.16c-.46-.66-1.05-2.53-.79-3.11s2.09-1.08,3.95-1.08c1.57,0,2.46.28,2.65.84a5.3,5.3,0,0,1-.48,3"/><path id="SVGID-2" data-name="SVGID" class="cls-2" d="M65,30V30c0,1.2-1.95,2.17-4.34,2.17s-4.33-1-4.33-2.17V30Z"/><g class="cls-31"><path class="cls-23" d="M64.66,30.6a20.59,20.59,0,0,1-3.6.29c-.24,0-.48,0-.72,0a18.94,18.94,0,0,1-3.71-.35c-.1,0-.18-.61-.18-.61h8.47S64.86,30.55,64.66,30.6Z"/></g><path class="cls-23" d="M63.37,21.55A2,2,0,0,1,65.32,20,1.6,1.6,0,0,1,67,21.49a2,2,0,0,1-1.76,1.21A2.33,2.33,0,0,1,63.37,21.55Z"/><circle class="cls-32" cx="65.18" cy="21.34" r="1"/><circle class="cls-5" cx="65.18" cy="21.34" r="0.38"/><circle class="cls-23" cx="65.78" cy="20.78" r="0.24"/><path class="cls-23" d="M58.05,21.55A2,2,0,0,0,56.1,20a1.6,1.6,0,0,0-1.66,1.51A2,2,0,0,0,56.2,22.7,2.29,2.29,0,0,0,58.05,21.55Z"/><circle class="cls-32" cx="56.25" cy="21.34" r="0.99"/><circle class="cls-5" cx="56.25" cy="21.34" r="0.38"/><circle class="cls-23" cx="55.74" cy="20.67" r="0.24"/><path class="cls-33" d="M33.8,58a1.26,1.26,0,0,0,.89.37h51.9a1.26,1.26,0,0,0,1.26-1.26V29.56a1.25,1.25,0,0,0-1.26-1.26H34.69a1.26,1.26,0,0,0-1.26,1.26V57.15a1.29,1.29,0,0,0,.37.89"/><path class="cls-34" d="M87.35,58.15a1.21,1.21,0,0,1-.75.25H34.69a1.24,1.24,0,0,1-.76-.25Z"/><circle class="cls-35" cx="60.64" cy="42.7" r="2.18"/><path class="cls-23" d="M26,55.78h1.19a2.63,2.63,0,0,1,2.63,2.63v0a0,0,0,0,1,0,0H23.33a0,0,0,0,1,0,0v0A2.63,2.63,0,0,1,26,55.78Z"/><path class="cls-36" d="M4,57.62h8.43V47.49a.72.72,0,0,0-.72-.72h-7a.72.72,0,0,0-.72.72Z"/><path class="cls-5" d="M0,50.19v5a1.64,1.64,0,0,0,1.64,1.64h1.6v1.6h10V47.65A1.64,1.64,0,0,0,11.56,46H4.87a1.64,1.64,0,0,0-1.63,1.64v.91H1.64A1.63,1.63,0,0,0,0,50.19Zm4.76-2.54a.12.12,0,0,1,.11-.12h6.69a.12.12,0,0,1,.11.12v9.21H4.76ZM1.52,50.19a.11.11,0,0,1,.12-.11H3.1v5.17H1.64a.11.11,0,0,1-.12-.11Z"/></symbol></defs><title>are-you-ready</title><g id="Layer_2" data-name="Layer 2"><g id="Layer_1-2" data-name="Layer 1"><use id="Are_you_Ready_3" data-name="Are you Ready?" width="110.13" height="58.41" xlink:href="#Are_you_Ready_"/></g></g></svg>