<svg xmlns="http://www.w3.org/2000/svg" xmlns:xlink="http://www.w3.org/1999/xlink" viewBox="0 0 105.43 54.62"><defs><style>.cls-1{opacity:0.5;}.cls-2,.cls-3,.cls-4,.cls-5,.cls-6,.cls-7{fill:#354557;}.cls-3{opacity:0.3;}.cls-4{opacity:0.2;}.cls-5{opacity:0.1;}.cls-6{opacity:0.05;}.cls-7{opacity:0.6;}.cls-8{fill:#18c0dc;}.cls-9{fill:#e5e5e5;}.cls-10{fill:#ca4b2f;}.cls-11{fill:#d2653e;}</style><symbol id="Expanding_around_the_globe" data-name="Expanding around the globe" viewBox="0 0 105.43 54.62"><g class="cls-1"><path class="cls-2" d="M34.86,5.25H30a2.46,2.46,0,0,0,4.91,0Z"/><circle class="cls-2" cx="32.4" cy="14.57" r="2.45"/><circle class="cls-3" cx="32.4" cy="23.97" r="2.45"/><circle class="cls-4" cx="32.4" cy="33.37" r="2.45"/><circle class="cls-5" cx="32.4" cy="42.77" r="2.45"/><circle class="cls-6" cx="32.4" cy="52.17" r="2.45"/><path class="cls-2" d="M19.77,5.25H14.86a2.46,2.46,0,0,0,4.91,0Z"/><circle class="cls-7" cx="17.32" cy="14.57" r="2.45"/><circle class="cls-7" cx="2.45" cy="14.57" r="2.45"/><circle class="cls-3" cx="17.32" cy="23.97" r="2.45"/><path class="cls-2" d="M49.16,5.25H44.25a2.46,2.46,0,0,0,4.91,0Z"/><circle class="cls-2" cx="46.7" cy="14.57" r="2.45"/><circle class="cls-3" cx="46.7" cy="23.97" r="2.45"/><circle class="cls-4" cx="46.7" cy="33.37" r="2.45"/><circle class="cls-5" cx="46.7" cy="42.77" r="2.45"/><circle class="cls-6" cx="46.7" cy="52.17" r="2.45"/><path class="cls-2" d="M63.46,5.25h-4.9a2.45,2.45,0,0,0,4.9,0Z"/><circle class="cls-2" cx="61.01" cy="14.57" r="2.45"/><circle class="cls-3" cx="61.01" cy="23.97" r="2.45"/><circle class="cls-4" cx="61.01" cy="33.37" r="2.45"/><path class="cls-2" d="M77.77,5.25H72.86a2.46,2.46,0,0,0,4.91,0Z"/><circle class="cls-2" cx="75.31" cy="14.57" r="2.45"/><circle class="cls-3" cx="75.31" cy="23.97" r="2.45"/><circle class="cls-4" cx="75.31" cy="33.37" r="2.45"/><circle class="cls-5" cx="75.31" cy="42.77" r="2.45"/><path class="cls-2" d="M92.06,5.25h-4.9a2.45,2.45,0,0,0,4.9,0Z"/><circle class="cls-7" cx="89.61" cy="14.57" r="2.45"/><path class="cls-2" d="M105.43,5.25h-4.9a2.45,2.45,0,0,0,4.9,0Z"/><circle class="cls-7" cx="102.98" cy="14.57" r="2.45"/><circle class="cls-3" cx="89.61" cy="23.97" r="2.45"/><circle class="cls-4" cx="89.61" cy="33.37" r="2.45"/><circle class="cls-3" cx="102.86" cy="23.97" r="2.45"/><circle class="cls-4" cx="102.86" cy="33.37" r="2.45"/><circle class="cls-5" cx="89.61" cy="42.77" r="2.45"/><circle class="cls-6" cx="89.61" cy="52.17" r="2.45"/></g><circle class="cls-8" cx="64.42" cy="30.64" r="21.05"/><path class="cls-9" d="M68.75,11l-2.11,1.75.15,1.39,3.39.77-1.85,1.54-4.46-1.23-.31,1.38-2.46.62-1.23-1.08-.62,1.38,1.08,1.39-.77.92-.77.92,2.77.16,1.54-1.23,2.31.3,1.38,2.31L69,23.38l1.38-2,.92-.92,1.54.3-.23,1.85-2.84,2-2.15,1.22L63.71,24.3,60,21.53a14.76,14.76,0,0,0-3.23,1.23c-.46.47-2.92,3.24-2.92,3.24l-.08,4.05L56,33.84l5.08,1.08,2,.15.77,1.7.46,4.46L64,43.07l1.85,3.24A27.38,27.38,0,0,0,69,47.84a18.44,18.44,0,0,1,2.15.93l1.08-1.85V42.61L75,37.54,77.25,34l.47-2.47-1.39-.46-1.69.16L74,30l1.08-1.39,4.59.59,4.18.33a18,18,0,0,1,1.07,1.68l-.11-2.52-.92-4.21L82.83,22l-1.38-2.36-1.16-1.72-1.6-1.72-1.35-1.23-1.9-1.38-1.66-1-1.93-.89-1.75-.61-.95-.28-.18.06Z"/><path class="cls-10" d="M57.44,35.49a4.39,4.39,0,1,0-8.78,0c0,2.42,4.39,8,4.39,8S57.44,37.91,57.44,35.49Z"/><path class="cls-2" d="M53.05,44.11h0a.63.63,0,0,1-.49-.24C52.1,43.28,48,38.05,48,35.49a5,5,0,1,1,10,0c0,2.56-4.05,7.79-4.52,8.38A.63.63,0,0,1,53.05,44.11Zm0-12.39a3.77,3.77,0,0,0-3.76,3.77c0,1.59,2.38,5.12,3.76,7,1.38-1.84,3.76-5.37,3.76-7A3.76,3.76,0,0,0,53.05,31.72Z"/><circle class="cls-11" cx="53.02" cy="35.57" r="1.79"/><path class="cls-2" d="M91.21,25.83s0-.06,0-.09v0a.65.65,0,0,0-.1-.15s0,0,0,0h0l0,0-.11-.06-.07,0h0l-.13,0-.1,0-.12,0-.11,0h0l-.06,0a.94.94,0,0,0-.12.09,0,0,0,0,1,0,0s0,0,0,0a47.7,47.7,0,0,1-4.08,4.1A21.69,21.69,0,0,0,74.24,11.33h0a.52.52,0,0,0,0-.24.67.67,0,0,0-.13-.21,1.07,1.07,0,0,0-.21-.13.55.55,0,0,0-.47,0,.65.65,0,0,0-.15.1A21.42,21.42,0,0,0,64.42,9,21.71,21.71,0,0,0,43,27.23c-7.78,6.9-11.1,13.55-8.88,17.81,1.49,2.84,5.15,4.22,10.16,4.22a39.13,39.13,0,0,0,7.7-.87,21.66,21.66,0,0,0,34.09-17,49,49,0,0,0,5-5,.47.47,0,0,0,.07-.12.43.43,0,0,0,0-.07.5.5,0,0,0,0-.12.3.3,0,0,0,0-.1v0A.53.53,0,0,0,91.21,25.83ZM64.42,10.21A20.45,20.45,0,0,1,84.84,30.64v.11a78.42,78.42,0,0,1-14.2,9.39A74.68,74.68,0,0,1,52.23,47,20.4,20.4,0,0,1,64.42,10.21ZM35.24,44.46C33.42,41,36.31,35.17,42.8,29.11q-.06.77-.06,1.53a21.65,21.65,0,0,0,7.85,16.68C42.91,48.71,37,47.85,35.24,44.46Zm29.18,6.61A20.29,20.29,0,0,1,53.71,48a78,78,0,0,0,17.51-6.75,80.6,80.6,0,0,0,13.53-8.81A20.45,20.45,0,0,1,64.42,51.07Z"/><path class="cls-2" d="M79.62,10.58h.1a.64.64,0,0,0,.52-.72.63.63,0,0,0-1.24.19A.62.62,0,0,0,79.62,10.58Z"/><path class="cls-2" d="M85.74,10.05h0a.63.63,0,0,0,.63-.62.63.63,0,0,0-.62-.63.63.63,0,0,0-.63.62A.62.62,0,0,0,85.74,10.05Z"/><path class="cls-2" d="M76.6,11.18h.14a.64.64,0,0,0,.47-.75.62.62,0,0,0-.75-.46h0a.62.62,0,0,0,.14,1.23Z"/><path class="cls-2" d="M88.72,10.3h.1a.63.63,0,0,0,.62-.52.63.63,0,0,0-1.24-.2A.64.64,0,0,0,88.72,10.3Z"/><path class="cls-2" d="M82.67,10.18h.06a.62.62,0,0,0,.57-.67.63.63,0,1,0-1.25.11A.63.63,0,0,0,82.67,10.18Z"/><path class="cls-2" d="M94.28,12.88a.56.56,0,0,0,.41-.16.62.62,0,1,0-.88-.05A.58.58,0,0,0,94.28,12.88Z"/><path class="cls-2" d="M95.46,17.46a.64.64,0,0,0-.77.46.61.61,0,0,0,.45.75.29.29,0,0,0,.16,0,.63.63,0,0,0,.6-.46A.64.64,0,0,0,95.46,17.46Z"/><path class="cls-2" d="M95.45,14.41a.62.62,0,0,0-.54.7h0a.63.63,0,0,0,.62.54.13.13,0,0,0,.08,0,.62.62,0,1,0-.17-1.22Z"/><path class="cls-2" d="M94.45,20.38a.62.62,0,0,0-.85.25.61.61,0,0,0,.27.84.5.5,0,0,0,.28.08.64.64,0,0,0,.56-.34A.61.61,0,0,0,94.45,20.38Z"/><path class="cls-2" d="M92.35,10.76A.63.63,0,0,0,92,9.93a.64.64,0,0,0-.82.33.62.62,0,0,0,.33.82.53.53,0,0,0,.25.05A.61.61,0,0,0,92.35,10.76Z"/><path class="cls-2" d="M92,23.18h0a.63.63,0,0,0,.5,1,.62.62,0,0,0,.51-.26h0a.63.63,0,0,0-1-.73Z"/><path class="cls-10" d="M75.2,5a4.39,4.39,0,0,0-8.78,0c0,2.43,4.39,8,4.39,8S75.2,7.44,75.2,5Z"/><path class="cls-2" d="M70.81,13.63h0a.63.63,0,0,1-.49-.24C69.86,12.81,65.8,7.58,65.8,5a5,5,0,0,1,10,0c0,2.57-4.06,7.8-4.53,8.38A.63.63,0,0,1,70.81,13.63Zm0-12.38A3.77,3.77,0,0,0,67.05,5c0,1.6,2.39,5.13,3.76,7,1.38-1.84,3.77-5.37,3.77-7A3.77,3.77,0,0,0,70.81,1.25Z"/><circle class="cls-11" cx="70.79" cy="5.09" r="1.79"/></symbol></defs><title>expanding-around-the-globe</title><g id="Layer_2" data-name="Layer 2"><g id="Layer_1-2" data-name="Layer 1"><use id="Expanding_around_the_globe-3" data-name="Expanding around the globe" width="105.43" height="54.62" xlink:href="#Expanding_around_the_globe"/></g></g></svg>