<svg id="Layer_1" data-name="Layer 1" xmlns="http://www.w3.org/2000/svg" viewBox="0 0 104.82 103"><defs><style>.cls-1{fill:#fff;}.cls-2{fill:#b10036;}</style></defs><title>logo</title><path class="cls-1" d="M0,107v-4H104.82c.72-16.64.43-98.74-.35-103H0V-4"/><path class="cls-2" d="M0,0H104.47c.78,4.26,1.07,86.36.35,103H0ZM59.22,45.14l-.67.81a11.65,11.65,0,0,1,3.42,5A9.59,9.59,0,0,0,65.72,56H79.85c1.44,3.34,4.09,6.1,5.41,10-1.73,1.62-1.72,4.28-3.79,6-1.49,0-3.14-.06-4.78,0s-3.22-.38-5,.47c1.06,1.92,1.64,3.82,3.1,4.82C74.07,79,73,80.19,73,81.92H86.55c3.41-5.33,5.93-11,9.57-16-4-6.35-7.13-13-11.57-19h-14c-2.34-1.62-1.8-5.08-4.87-6.08-1,1.57-1.64,3.46-3.93,4.3-.58,0-1.54,0,2.76,12C64,56.22,62.86,56,63,55c.27-1.62-.92-.82-1.52-1-2,3.86-5.19,7.06-6.51,11.32,3.13,3.38,4.15,8,7.22,11.55-2.14,3.05-2.67,6.92-5.78,9.1h-9l-4-6.79c-1.62.57-1.35,2.73-2.77,3.64-1.5.62-3.25-.38-4.34.4,1.23,4.41,4.38,7.62,6,11.68H62.9L73.15,78c-1.95-3.42-3.6-7-5.9-10.07a6.35,6.35,0,0,1-1.2-4.5c1.75-1.69,3.34-3.45,2.83-6.36C67.33,57.09,65.87,57.09,59.22,45.14ZM10,62.54c.15,1.08-.32,2.23.34,3.32,3.3,5.46,6.14,11.22,9.88,16.1H39.61c3.25-3.88,4.89-8.72,8-12.86,2.28-.49,4.94.41,7.71-.54l-2.13-4.23c1.58-1.23,2.22-3,3.06-4.85-5.12,1.08-10.1.18-14.73.63L34.84,71.84H24.43L21,65.14c0-.63,0-1.63,0-2.63,1.46-1.45,3-2.85,3-5.53H18.39L16.5,53C13.65,55.86,12.81,59.85,10,62.54ZM88.42,49.92C91.3,48,91.89,44.45,94,42s.94-4.78-.5-6.92a76.42,76.42,0,0,1-5.94-10,9.26,9.26,0,0,0-3.17-4H64.23L56.69,34.22H49.58L52,39.08c-.27,1.5-2.84,1.71-1.7,3.81H62.89L70.2,30.1h9.58l5,8.35c-.85,2.26-2.93,3.85-3.7,6.62H85.8A8.58,8.58,0,0,0,88.42,49.92ZM24,46l-4.16-8.18c2.22-2.18,3.19-5,4.54-7.79,2.8-.1,5.69.1,9-.16C31.79,28.46,31.55,27,31,25.73c-.66-1.6,1-2.89,1-4.6H19.56C16,26.14,13.81,31.91,10,36.69a9,9,0,0,0,1.84,5.76C14.6,46.75,17,51.28,19.7,56H34.45c2.18,1.65,1.89,4.64,4.11,5.92,1.52-.86,1.36-2.95,2.84-3.83,1.46-.45,3.13.4,4.51-.47-2.39-4.1-4.3-8.27-7.26-11.65ZM56.47,17.06c2.38,1.52,1.68,5.41,5.36,6.12-.08-2.2,1.61-3,2.75-4.11,1.24-.31,2.48.45,3.61-.76L61.82,8.1H41.33C38.89,14.29,34.9,19.52,32,24.9c2.24,4.85,5.38,8.78,7.2,13.73-.95,1.81-1.93,3.73-3,5.62-.15.29-.16.48.53.89H40.5c1.28,1.68,1.2,3.83,3.09,4.72,2-4,5.45-7.26,6.52-11.76a86.42,86.42,0,0,1-7.36-12.73l4.86-8.31Z"/><path class="cls-1" d="M10,62.54c2.8-2.69,3.65-6.67,6.49-9.55l1.89,4H24c0,2.69-1.55,4.09-3,5.53,0,1,0,2,0,2.63l3.43,6.7H34.84L41.51,60.1c4.63-.45,9.61.45,14.73-.63-.84,1.84-1.48,3.62-3.06,4.85l2.13,4.23c-2.77,1-5.43.05-7.71.54-3.09,4.15-4.73,9-8,12.86H20.22c-3.74-4.88-6.58-10.64-9.88-16.1C9.69,64.77,10.15,63.61,10,62.54Z"/><path class="cls-1" d="M59.22,45.14h2.5c2.29-.85,2.95-2.73,3.93-4.3,3.07,1,2.53,4.46,4.87,6.08h14c4.44,6,7.52,12.7,11.57,19-3.64,4.93-6.17,10.63-9.57,16H73c0-1.73,1.08-2.9,1.79-4.61-1.46-1-2-2.9-3.1-4.82,1.8-.85,3.44-.4,5-.47s3.29,0,4.78,0c2.07-1.7,2.06-4.36,3.79-6-1.32-3.87-4-6.64-5.41-10H65.72A9.59,9.59,0,0,1,62,50.94a11.65,11.65,0,0,0-3.42-5Z"/><path class="cls-1" d="M88.42,49.92a8.58,8.58,0,0,1-2.63-4.85H81.13c.77-2.77,2.84-4.36,3.7-6.62l-5-8.35H70.2L62.89,42.89H50.32c-1.14-2.1,1.44-2.31,1.7-3.81l-2.45-4.86h7.11l7.54-13.17H84.38a9.26,9.26,0,0,1,3.17,4,76.42,76.42,0,0,0,5.94,10C94.93,37.18,96,39.55,94,42S91.3,48,88.42,49.92Z"/><path class="cls-1" d="M64.48,57.09h4.4C69.38,60,67.8,61.76,66,63.45a6.34,6.34,0,0,0,1.2,4.5c2.3,3.08,4,6.65,5.9,10.07L62.9,94.89H42.38c-1.65-4.06-4.8-7.28-6-11.68,1.09-.77,2.84.22,4.34-.4,1.42-.9,1.15-3.07,2.77-3.64l4,6.79h9c3.11-2.18,3.65-6,5.78-9.1-3.07-3.51-4.09-8.17-7.22-11.55,1.32-4.26,4.48-7.46,6.51-11.32.59.2,1.78-.6,1.52,1C62.86,56,64,56.22,64.48,57.09Z"/><path class="cls-1" d="M24,46H38.65c3,3.37,4.87,7.54,7.26,11.65-1.38.87-3,0-4.51.47-1.48.88-1.32,3-2.84,3.83-2.22-1.28-1.93-4.28-4.11-5.92H19.7c-2.71-4.72-5.1-9.25-7.85-13.55A9,9,0,0,1,10,36.69c3.81-4.78,6-10.55,9.55-15.56H32c.07,1.71-1.63,3-1,4.6.53,1.28.78,2.73,2.42,4.13-3.32.27-6.21.06-9,.16-1.36,2.77-2.32,5.61-4.54,7.79Z"/><path class="cls-1" d="M56.47,17.06H47.61l-4.86,8.31a86.42,86.42,0,0,0,7.36,12.73c-1.06,4.5-4.49,7.75-6.52,11.76-1.9-.89-1.81-3-3.09-4.72H36.76c-.69-.41-.68-.6-.53-.89,1-1.9,2-3.82,3-5.62-1.82-4.95-5-8.88-7.2-13.73,2.91-5.38,6.9-10.6,9.35-16.79H61.82l6.37,10.2c-1.12,1.21-2.36.46-3.61.76-1.14,1.08-2.84,1.92-2.75,4.11C58.15,22.47,58.85,18.58,56.47,17.06Z"/></svg>