<svg id="Layer_1" data-name="Layer 1" xmlns="http://www.w3.org/2000/svg" viewBox="0 0 61.62 65"><defs><style>.cls-1{fill:#fff;}.cls-2{fill:#b10036;}</style></defs><title>ifrs</title><path class="cls-1" d="M0,62.66V60.32H61.38c.42-9.75.25-57.82-.2-60.32H0V-2.34" transform="translate(0 2.34)"/><path class="cls-2" d="M0,0H61.18c.46,2.49.63,50.57.2,60.32H0ZM34.68,26.43l-.39.47a6.82,6.82,0,0,1,2,2.92,5.61,5.61,0,0,0,2.2,3h8.27c.84,2,2.4,3.57,3.17,5.84-1,1-1,2.51-2.22,3.5-.88,0-1.84,0-2.8,0a6.65,6.65,0,0,0-2.94.27c.62,1.13,1,2.24,1.82,2.82-.41,1-1,1.69-1,2.7h7.94c2-3.12,3.47-6.46,5.6-9.35-2.37-3.72-4.18-7.63-6.78-11.15H41.29c-1.37-.95-1.05-3-2.85-3.56-.58.92-1,2-2.3,2.52-.34,0-.9,0,1.62,7-.27-.51-.95-.64-.85-1.22.16-.95-.54-.48-.89-.59-1.19,2.26-3,4.14-3.81,6.63C34,40.23,34.64,43,36.44,45c-1.25,1.79-1.56,4-3.39,5.33H27.78l-2.33-4c-.95.33-.79,1.6-1.62,2.13-.88.36-1.9-.22-2.54.23.72,2.58,2.56,4.46,3.53,6.84h12l6-9.88a55.81,55.81,0,0,0-3.45-5.89,3.72,3.72,0,0,1-.7-2.64c1-1,2-2,1.66-3.72C39.43,33.43,38.57,33.43,34.68,26.43ZM5.86,36.62c.09.63-.19,1.31.2,1.95C8,41.77,9.65,45.14,11.84,48H23.2c1.9-2.27,2.86-5.1,4.67-7.53,1.33-.29,2.89.24,4.52-.32l-1.25-2.48a6.88,6.88,0,0,0,1.79-2.84c-3,.63-5.91.1-8.63.37l-3.9,6.88h-6.1l-2-3.92c0-.37,0-1,0-1.54a4.36,4.36,0,0,0,1.76-3.24H10.77L9.66,31C8,32.71,7.5,35,5.86,36.62Zm45.92-7.39c1.68-1.13,2-3.21,3.26-4.66s.55-2.8-.29-4.05a44.75,44.75,0,0,1-3.48-5.87,5.43,5.43,0,0,0-1.86-2.32H37.61L33.2,20H29l1.43,2.84c-.16.88-1.66,1-1,2.23h7.36l4.28-7.49h5.61l3,4.89c-.5,1.33-1.71,2.25-2.16,3.88h2.73A5,5,0,0,0,51.78,29.23Zm-37.71-2.3-2.43-4.79c1.3-1.27,1.87-2.94,2.66-4.56,1.64-.06,3.33.06,5.28-.1a5,5,0,0,1-1.41-2.42c-.39-.94.61-1.69.57-2.69H11.45c-2.08,2.94-3.36,6.32-5.59,9.11a5.28,5.28,0,0,0,1.08,3.38c1.61,2.52,3,5.17,4.6,7.94h8.64c1.28,1,1.11,2.72,2.41,3.47.89-.5.8-1.73,1.66-2.24.86-.26,1.83.23,2.64-.27-1.4-2.4-2.52-4.84-4.25-6.82ZM33.07,10c1.39.89,1,3.17,3.14,3.58,0-1.29.94-1.78,1.61-2.41.73-.18,1.45.26,2.11-.45l-3.73-6h-12c-1.43,3.62-3.77,6.68-5.47,9.83,1.31,2.84,3.15,5.14,4.22,8-.55,1.06-1.13,2.18-1.73,3.29-.09.17-.09.28.31.52h2.19c.75,1,.7,2.24,1.81,2.76,1.19-2.35,3.19-4.25,3.82-6.89A50.6,50.6,0,0,1,25,14.85L27.88,10Z" transform="translate(0 2.34)"/><path class="cls-1" d="M5.86,36.62C7.5,35,8,32.71,9.66,31l1.11,2.34h3.29A4.36,4.36,0,0,1,12.3,36.6c0,.58,0,1.17,0,1.54l2,3.92h6.1l3.9-6.88c2.71-.26,5.63.26,8.63-.37a6.87,6.87,0,0,1-1.79,2.84l1.25,2.48c-1.62.56-3.18,0-4.52.32C26.06,42.89,25.1,45.72,23.2,48H11.84C9.65,45.14,8,41.77,6.06,38.57,5.67,37.93,5.95,37.25,5.86,36.62Z" transform="translate(0 2.34)"/><path class="cls-1" d="M34.68,26.43h1.46c1.34-.5,1.73-1.6,2.3-2.52,1.8.58,1.48,2.61,2.85,3.56h8.22c2.6,3.53,4.4,7.43,6.78,11.15-2.13,2.89-3.61,6.22-5.6,9.35H42.74c0-1,.63-1.7,1-2.7-.85-.59-1.19-1.7-1.82-2.82a6.65,6.65,0,0,1,2.94-.27c1,0,1.93,0,2.8,0,1.21-1,1.21-2.55,2.22-3.5-.77-2.27-2.33-3.89-3.17-5.84H38.49a5.61,5.61,0,0,1-2.2-3,6.82,6.82,0,0,0-2-2.92Z" transform="translate(0 2.34)"/><path class="cls-1" d="M51.78,29.23a5,5,0,0,1-1.54-2.84H47.51c.45-1.62,1.66-2.55,2.16-3.88l-3-4.89H41.11l-4.28,7.49H29.47c-.67-1.23.84-1.35,1-2.23L29,20H33.2l4.41-7.71h11.8a5.43,5.43,0,0,1,1.86,2.32,44.75,44.75,0,0,0,3.48,5.87c.84,1.25,1.48,2.64.29,4.05S53.46,28.1,51.78,29.23Z" transform="translate(0 2.34)"/><path class="cls-1" d="M37.76,33.43h2.58c.3,1.7-.63,2.73-1.66,3.72a3.71,3.71,0,0,0,.7,2.63,55.81,55.81,0,0,1,3.45,5.89l-6,9.88h-12c-1-2.38-2.81-4.26-3.53-6.84.64-.45,1.66.13,2.54-.23.83-.53.67-1.8,1.62-2.13l2.33,4H33c1.82-1.28,2.14-3.54,3.39-5.33-1.8-2.06-2.4-4.78-4.23-6.76.77-2.49,2.62-4.37,3.81-6.63.35.12,1-.35.89.59C36.81,32.8,37.49,32.92,37.76,33.43Z" transform="translate(0 2.34)"/><path class="cls-1" d="M14.07,26.93h8.56c1.73,2,2.85,4.42,4.25,6.82-.81.51-1.78,0-2.64.27-.87.52-.77,1.74-1.66,2.24-1.3-.75-1.13-2.5-2.41-3.47H11.53c-1.58-2.77-3-5.42-4.6-7.94a5.28,5.28,0,0,1-1.08-3.38c2.23-2.8,3.51-6.18,5.59-9.11h7.28c0,1-1,1.75-.57,2.69a5,5,0,0,0,1.41,2.42c-1.94.16-3.64,0-5.28.1-.79,1.62-1.36,3.29-2.66,4.56Z" transform="translate(0 2.34)"/><path class="cls-1" d="M33.07,10H27.88L25,14.85a50.6,50.6,0,0,0,4.31,7.45c-.62,2.64-2.63,4.54-3.82,6.89-1.11-.52-1.06-1.78-1.81-2.76H21.53c-.4-.24-.4-.35-.31-.52.6-1.11,1.18-2.23,1.73-3.29-1.07-2.9-2.91-5.2-4.22-8,1.7-3.15,4-6.21,5.47-9.83h12l3.73,6c-.66.71-1.38.27-2.11.45-.67.63-1.66,1.12-1.61,2.41C34,13.16,34.46,10.88,33.07,10Z" transform="translate(0 2.34)"/></svg>