<svg xmlns="http://www.w3.org/2000/svg" viewBox="0 0 21 23.76"><defs><style>.cls-1{fill:#24739e;}.cls-2{fill:#344456;}</style></defs><title>Key Terms</title><g id="Layer_2" data-name="Layer 2"><g id="Layer_1-2" data-name="Layer 1"><path class="cls-1" d="M21,23.76H0V0H21ZM.86,22.89H20.14V.86H.86Z"/><circle class="cls-2" cx="10.5" cy="8.55" r="0.72"/><path class="cls-2" d="M13.34,9.33A2.84,2.84,0,1,0,9.42,12v5.31h2.17V16.7h.52v-1h-.52V15.3h.52v-.72h-.52V12A2.85,2.85,0,0,0,13.34,9.33Zm-2.5,7.19h-.67V12.15l.33,0,.34,0Zm.08-5.14a2.86,2.86,0,0,1-.42,0,2.85,2.85,0,0,1-.42,0,2.09,2.09,0,1,1,.84,0Z"/></g></g></svg>
