<svg xmlns="http://www.w3.org/2000/svg" viewBox="0 0 13 9"><defs><style>.cls-1{fill:#25739e;}.cls-2{fill:#fff;}</style></defs><title>LO</title><g id="Layer_1" data-name="Layer 1"><rect class="cls-1" width="13" height="9"/><path class="cls-2" d="M3.65,6.68H5.88v.61H2.93V1.6h.72Z"/><path class="cls-2" d="M10.18,4.95a2.83,2.83,0,0,1-.5,1.79,1.69,1.69,0,0,1-1.41.63,1.71,1.71,0,0,1-1.39-.61A2.7,2.7,0,0,1,6.35,5V4a2.84,2.84,0,0,1,.5-1.79,1.68,1.68,0,0,1,1.41-.65,1.7,1.7,0,0,1,1.4.62,2.79,2.79,0,0,1,.51,1.77ZM9.46,4a2.44,2.44,0,0,0-.29-1.34,1,1,0,0,0-.9-.44,1,1,0,0,0-.89.45,2.36,2.36,0,0,0-.31,1.31v1a2.41,2.41,0,0,0,.3,1.33,1,1,0,0,0,.9.46,1,1,0,0,0,.89-.42A2.37,2.37,0,0,0,9.46,5Z"/></g></svg>