<svg xmlns="http://www.w3.org/2000/svg" xmlns:xlink="http://www.w3.org/1999/xlink" viewBox="0 0 115.87 54.96"><defs><style>.cls-1,.cls-2,.cls-28,.cls-4{fill:none;}.cls-2,.cls-4{clip-rule:evenodd;}.cls-3{fill:#a11d21;}.cls-4{clip-path:url(#clip-path);}.cls-5{fill:#e5e5e5;}.cls-6{fill:#fff;}.cls-7{fill:#354557;}.cls-8{clip-path:url(#clip-path-2);}.cls-9{clip-path:url(#clip-path-3);}.cls-10{isolation:isolate;}.cls-11{clip-path:url(#clip-path-4);}.cls-12{clip-path:url(#clip-path-5);}.cls-13{clip-path:url(#clip-path-6);}.cls-14{fill:#281414;}.cls-15{clip-path:url(#clip-path-7);}.cls-16{fill:#e2c099;}.cls-16,.cls-17,.cls-18,.cls-21{fill-rule:evenodd;}.cls-17{fill:#ca4b2f;}.cls-18,.cls-39{fill:#f47540;}.cls-18{opacity:0.3;}.cls-19{clip-path:url(#clip-path-8);}.cls-20,.cls-21{fill:#d8b08e;}.cls-22{clip-path:url(#clip-path-10);}.cls-23{fill:#e4cda4;}.cls-24{clip-path:url(#clip-path-12);}.cls-25{clip-path:url(#clip-path-14);}.cls-26{clip-path:url(#clip-path-16);}.cls-27{fill:#26739e;}.cls-28{stroke:#ba6d62;stroke-linecap:round;stroke-miterlimit:10;stroke-width:0.4px;}.cls-29{clip-path:url(#clip-path-18);}.cls-30{fill:#5e5e5e;}.cls-31{clip-path:url(#clip-path-20);}.cls-32{fill:#513d3c;}.cls-33{clip-path:url(#clip-path-22);}.cls-34{fill:#c5c5cb;}.cls-35{fill:#18c0dc;}.cls-36{fill:#757887;}.cls-37{fill:#555c6c;}.cls-38{fill:#f2f2f3;}.cls-40{fill:#093d4c;}</style><clipPath id="clip-path"><path id="SVGID" class="cls-2" d="M44.39,31a5.42,5.42,0,0,1-4.21-1.59l-.71-.68a6.75,6.75,0,0,1-2.06-4c0-.25-.07-.49-.09-.74-.07-.77-.12-1.56-.12-2.35v-7A7.13,7.13,0,0,1,38.83,10h0a6.3,6.3,0,0,1,.71-.75h0A8.8,8.8,0,0,1,43.33,8a9.56,9.56,0,0,1,5.9,1.23l0,0a5.09,5.09,0,0,1,.68.71h0a7.2,7.2,0,0,1,1.64,4.58"/></clipPath><clipPath id="clip-path-2"><rect id="SVGID-2" data-name="SVGID" class="cls-1" x="32.57" y="6.13" width="23.46" height="27.49"/></clipPath><clipPath id="clip-path-3"><rect id="SVGID-3" data-name="SVGID" class="cls-1" x="23.73" y="5.13" width="42" height="50"/></clipPath><clipPath id="clip-path-4"><rect id="SVGID-4" data-name="SVGID" class="cls-1" x="29.73" y="4.13" width="29" height="30"/></clipPath><clipPath id="clip-path-5"><path id="SVGID-5" data-name="SVGID" class="cls-2" d="M54.37,30.64a8.6,8.6,0,0,1-3.75,2.53h0a8.76,8.76,0,0,1-2.72.44H41.11a8.82,8.82,0,0,1-6.7-3.09C30.55,26,32.44,7.2,43.33,6.18c13.19-1.24,14.57,20.35,11,24.46"/></clipPath><clipPath id="clip-path-6"><rect id="SVGID-6" data-name="SVGID" class="cls-1" x="31.73" y="6.13" width="25" height="28"/></clipPath><clipPath id="clip-path-7"><rect id="SVGID-7" data-name="SVGID" class="cls-1" x="23.73" y="25.98" width="41.32" height="28.98"/></clipPath><clipPath id="clip-path-8"><path id="SVGID-8" data-name="SVGID" class="cls-2" d="M49.7,26v4.11c-.12.14-.25.27-.38.4l-.72.67a5.39,5.39,0,0,1-4.21,1.59,5.39,5.39,0,0,1-4.21-1.59l-.71-.67c-.14-.13-.26-.26-.39-.4V26Z"/></clipPath><clipPath id="clip-path-10"><path id="SVGID-10" data-name="SVGID" class="cls-4" d="M51.58,14.52v7.05c0,.64,0,1.27-.08,1.9v0c0,.39-.07.79-.13,1.17a6.79,6.79,0,0,1-2,4l-.72.68A5.42,5.42,0,0,1,44.39,31"/></clipPath><clipPath id="clip-path-12"><path id="SVGID-12" data-name="SVGID" class="cls-2" d="M51.58,14.52v7.05c0,.64,0,1.27-.08,1.9a14.66,14.66,0,0,0-2.17-6.23,7.41,7.41,0,0,1-1.14-3.94V10.68l-.14,2a4.53,4.53,0,0,1-2.95,3.9l-2.42.88a8.36,8.36,0,0,0-5.36,6.44c-.07-.77-.12-1.56-.12-2.35v-7A7.13,7.13,0,0,1,38.83,10h0a6.3,6.3,0,0,1,.71-.75h0A8.8,8.8,0,0,1,43.33,8a9.56,9.56,0,0,1,5.9,1.23l0,0a5.09,5.09,0,0,1,.68.71h0a7.2,7.2,0,0,1,1.64,4.58"/></clipPath><clipPath id="clip-path-14"><path id="SVGID-14" data-name="SVGID" class="cls-2" d="M51,19c-.29-.37-.84-.52-1.88-.52h-.21c-2.2,0-3.32.45-3.32,1.26a2.47,2.47,0,0,0,.08.6c.25-.61,1.33-.93,3.23-1h.22c1,0,1.59.16,1.88.52a1,1,0,0,1,.21.5l.05,0A2,2,0,0,0,51,19"/></clipPath><clipPath id="clip-path-16"><path id="SVGID-16" data-name="SVGID" class="cls-2" d="M39.9,18.52h-.22c-1,0-1.59.15-1.88.52a2.12,2.12,0,0,0-.24,1.57,1.36,1.36,0,0,1,.24-.67c.29-.37.84-.52,1.88-.52h.22q2.84,0,3.24,1a3.06,3.06,0,0,0,.07-.59c0-.81-1.12-1.23-3.31-1.26"/></clipPath><clipPath id="clip-path-18"><path id="SVGID-18" data-name="SVGID" class="cls-2" d="M52.08,18.11h-3.2a9.53,9.53,0,0,0-2.43.31l-.21.06a5.7,5.7,0,0,1-1.59.22h-.52a5.58,5.58,0,0,1-1.58-.22l-.21-.06a9.6,9.6,0,0,0-2.44-.31H36.71a.52.52,0,0,0-.53.53v.22a.65.65,0,0,0,.33.57,1.06,1.06,0,0,1,.48.67l.28,1.23a0,0,0,0,0,0,0c.43,1.93,2.45,1.71,3.27,1.71a3.09,3.09,0,0,0,2.78-2h0L43.82,20a.64.64,0,0,1,.57-.37A.63.63,0,0,1,45,20l.48,1.09h0a3.09,3.09,0,0,0,2.78,2c.83,0,2.85.22,3.28-1.71v0l.28-1.23a1.08,1.08,0,0,1,.49-.67.68.68,0,0,0,.33-.57v-.22a.53.53,0,0,0-.53-.53m-11.53,4.4H40c-1.33,0-2-.37-2.17-1.28a2.75,2.75,0,0,1,.1-2.12c.26-.32.77-.46,1.76-.46h.21c1.45,0,3.17.23,3.17,1.11a2.7,2.7,0,0,1-2.51,2.73M51,21.24c-.2.91-.83,1.28-2.17,1.28h-.56a2.7,2.7,0,0,1-2.51-2.73c0-.88,1.72-1.09,3.17-1.11h.21c1,0,1.5.14,1.76.46a2.7,2.7,0,0,1,.1,2.12"/></clipPath><clipPath id="clip-path-20"><path id="SVGID-20" data-name="SVGID" class="cls-2" d="M54.37,30.64a8.6,8.6,0,0,1-3.75,2.53,10.23,10.23,0,0,0,1.19-7.3,9.31,9.31,0,0,1-.23-2v-.6a14.62,14.62,0,0,0-2.25-7.79,7.38,7.38,0,0,1-1.14-3.94V8.88l-.14,2a4.54,4.54,0,0,1-2.95,3.9l-2.42.88a8.34,8.34,0,0,0-5.48,7.83v.89c0,2.83-1.53,5,1,8.7a8.85,8.85,0,0,1-3.75-2.58C30.55,26,32.44,7.2,43.33,6.18c13.19-1.24,14.57,20.35,11,24.46"/></clipPath><clipPath id="clip-path-22"><path id="SVGID-22" data-name="SVGID" class="cls-3" d="M47.11,26.5v0c0,1.05-1.23,1.89-2.73,1.89s-2.73-.84-2.73-1.89v0Z"/></clipPath></defs><title>managing-change</title><g id="Layer_2" data-name="Layer 2"><g id="Layer_1-2" data-name="Layer 1"><rect class="cls-5" x="62.69" y="34.69" width="24.63" height="20.25"/><rect class="cls-6" x="61.94" y="33.94" width="24.63" height="21"/><rect class="cls-7" x="65.9" y="38.8" width="7.83" height="1.37" transform="translate(139.63 78.96) rotate(180)"/><rect class="cls-7" x="65.9" y="41.82" width="16.7" height="1.37"/><rect class="cls-7" x="65.9" y="44.85" width="16.2" height="1.37"/><rect class="cls-7" x="65.9" y="47.87" width="16.7" height="1.37"/><rect class="cls-7" x="65.9" y="50.86" width="16.7" height="1.37"/><rect class="cls-7" x="65.9" y="50.86" width="16.7" height="1.37"/><rect class="cls-7" x="65.91" y="53.84" width="16.7" height="1.1"/><g class="cls-8"><g class="cls-9"><g class="cls-10"><g class="cls-11"><g class="cls-12"><g class="cls-13"><rect class="cls-14" x="27.57" y="1.13" width="33.46" height="37.49"/></g></g></g></g></g></g><g class="cls-15"><path id="SVGID-23" data-name="SVGID" class="cls-16" d="M65.05,51.76V55H23.73v-3.2c0-5.81.73-12.83,6.46-13.86l4.22-.9a5.64,5.64,0,0,0,2-.8,5.52,5.52,0,0,0,1.71-1.69,5.6,5.6,0,0,0,.93-3.1V26H49.7v5.43a5.6,5.6,0,0,0,.93,3.1,5.69,5.69,0,0,0,1.72,1.7,5.89,5.89,0,0,0,2,.79c.09,0,4.1.89,4.21.9,5.73,1,6.46,8.05,6.46,13.86"/></g><path id="SVGID-24" data-name="SVGID" class="cls-17" d="M34.41,37l-3,.64V55H57.35V37.64l-3-.64a5.79,5.79,0,0,1-1.9-.71,21.55,21.55,0,0,1-8.12,14.79,21.61,21.61,0,0,1-8.11-14.76,5.81,5.81,0,0,1-1.84.68"/><path class="cls-18" d="M31.87,37.54l-.44.1V55H36A31.11,31.11,0,0,1,31.87,37.54Z"/><path class="cls-18" d="M57.35,44.85V37.64l-3-.64-.14,0A30.41,30.41,0,0,1,57.35,44.85Z"/><g class="cls-19"><g class="cls-9"><rect class="cls-20" x="34.08" y="20.98" width="20.62" height="16.78"/></g></g><path id="SVGID-25" data-name="SVGID" class="cls-16" d="M51.58,14.52v7.05c0,.64,0,1.27-.08,1.9v0c0,.39-.07.79-.13,1.17a6.79,6.79,0,0,1-2,4l-.72.68A5.42,5.42,0,0,1,44.39,31a5.42,5.42,0,0,1-4.21-1.59l-.71-.68a6.75,6.75,0,0,1-2.06-4c0-.25-.07-.49-.09-.74-.07-.77-.12-1.56-.12-2.35v-7A7.13,7.13,0,0,1,38.83,10h0a6.3,6.3,0,0,1,.71-.75h0A8.8,8.8,0,0,1,43.33,8a9.56,9.56,0,0,1,5.9,1.23l0,0a5.09,5.09,0,0,1,.68.71h0a7.2,7.2,0,0,1,1.64,4.58"/><path id="SVGID-26" data-name="SVGID" class="cls-21" d="M44.39,31a5.42,5.42,0,0,1-4.21-1.59l-.71-.68a6.75,6.75,0,0,1-2.06-4c0-.25-.07-.49-.09-.74-.07-.77-.12-1.56-.12-2.35v-7A7.13,7.13,0,0,1,38.83,10h0a6.3,6.3,0,0,1,.71-.75h0A8.8,8.8,0,0,1,43.33,8a9.51,9.51,0,0,1,1.06-.05V20l-.53,3.51.53.91Z"/><g class="cls-22"><g class="cls-9"><rect class="cls-23" x="32.2" y="2.93" width="24.38" height="33.03"/></g></g><g class="cls-24"><g class="cls-9"><rect class="cls-20" x="32.2" y="2.93" width="24.38" height="25.99"/></g></g><g class="cls-25"><g class="cls-9"><rect class="cls-20" x="40.57" y="13.51" width="15.68" height="11.92"/></g></g><g class="cls-26"><g class="cls-9"><rect class="cls-20" x="32.53" y="13.51" width="15.68" height="12.08"/></g></g><path class="cls-6" d="M42.52,20.7a1.78,1.78,0,0,0-1.75-1.39,1.42,1.42,0,0,0-1.49,1.33,1.78,1.78,0,0,0,1.58,1.07A2.08,2.08,0,0,0,42.52,20.7Z"/><circle class="cls-27" cx="40.9" cy="20.51" r="0.89"/><circle class="cls-7" cx="40.9" cy="20.51" r="0.34"/><circle class="cls-6" cx="41.3" cy="19.94" r="0.22"/><path class="cls-28" d="M42.43,18.82l-2.62-.25a3.15,3.15,0,0,0-1,.29"/><path class="cls-6" d="M46.31,20.7a1.79,1.79,0,0,1,1.75-1.41,1.44,1.44,0,0,1,1.49,1.35A1.77,1.77,0,0,1,48,21.73,2.07,2.07,0,0,1,46.31,20.7Z"/><circle class="cls-27" cx="47.93" cy="20.51" r="0.89"/><circle class="cls-7" cx="47.93" cy="20.51" r="0.34"/><circle class="cls-6" cx="48.47" cy="20.01" r="0.22"/><path class="cls-28" d="M46.4,18.82,49,18.57a3.15,3.15,0,0,1,1,.29"/><g class="cls-29"><g class="cls-9"><rect class="cls-30" x="31.18" y="13.1" width="26.43" height="14.98"/></g></g><g class="cls-31"><g class="cls-9"><rect class="cls-32" x="27.57" y="1.13" width="33.46" height="37.04"/></g></g><path id="SVGID-27" data-name="SVGID" class="cls-3" d="M47.11,26.5v0c0,1.05-1.23,1.89-2.73,1.89s-2.73-.84-2.73-1.89v0Z"/><g class="cls-33"><path class="cls-6" d="M46.89,27.06a9.7,9.7,0,0,1-2.28.25,3.42,3.42,0,0,1-.45,0,9.05,9.05,0,0,1-2.33-.3c-.07,0-.12-.53-.12-.53h5.34S47,27,46.89,27.06Z"/></g><rect class="cls-34" x="78.6" y="23.09" width="3.56" height="8.61"/><rect class="cls-35" x="78.6" y="23.09" width="3.56" height="0.88"/><rect class="cls-36" x="82.93" y="21.89" width="3.56" height="9.81"/><rect class="cls-35" x="82.93" y="21.89" width="3.56" height="3.25"/><rect class="cls-37" x="87.25" y="19.61" width="3.56" height="12.08"/><rect class="cls-35" x="87.25" y="19.61" width="3.56" height="4.75"/><rect class="cls-7" x="91.58" y="26.39" width="3.56" height="5.3"/><rect class="cls-35" x="91.58" y="26.39" width="3.56" height="0.46"/><path class="cls-38" d="M57,14.27V12h0V.72A.72.72,0,0,1,57.72,0H75a.72.72,0,0,1,.72.72V12a.72.72,0,0,1-.72.72H58.41Z"/><path class="cls-7" d="M66.35,2.05a4.17,4.17,0,1,0,4.17,4.17A4.17,4.17,0,0,0,66.35,2.05Zm0,7.33a3.17,3.17,0,1,1,3.17-3.16A3.17,3.17,0,0,1,66.35,9.38Z"/><path class="cls-7" d="M66.8,6.11V4.24a.51.51,0,0,0-.5-.5.5.5,0,0,0-.5.5V6.36a.48.48,0,0,0,.2.4l1.36,1a.53.53,0,0,0,.3.09.51.51,0,0,0,.4-.2A.5.5,0,0,0,68,7Z"/><path class="cls-35" d="M115.84,40.5H113.6a3.07,3.07,0,0,0-3.07-3.07V35.2A5.31,5.31,0,0,1,115.84,40.5Z"/><path class="cls-7" d="M110.53,45.84a5.34,5.34,0,1,1,0-10.67V37.4a3.11,3.11,0,1,0,3.1,3.1h2.24A5.35,5.35,0,0,1,110.53,45.84Z"/><path class="cls-39" d="M87.35,8V6.32H90V3.64h1.71V6.32h2.65V8H91.71v2.69H90V8Z"/><path class="cls-39" d="M15,16.12l1-1,1.51,1.52L19,15.13l1,1-1.54,1.53L20,19.15l-1,1-1.52-1.51-1.54,1.54-1-1,1.54-1.53Z"/><path class="cls-5" d="M101.36,26.35h4.84v1.12h-4.84Z"/><path class="cls-5" d="M63.38,25.78a1.16,1.16,0,0,1-.86.36,1.19,1.19,0,0,1-.87-.36,1.26,1.26,0,0,1,0-1.76,1.22,1.22,0,0,1,1.73,0,1.26,1.26,0,0,1,0,1.76Zm-.49-.51a.53.53,0,0,0-.37-.9.51.51,0,0,0-.38.16.53.53,0,0,0,0,.74.51.51,0,0,0,.38.16A.5.5,0,0,0,62.89,25.27Zm2.3-1.63h.5L63,28.59h-.51Zm1.4,4.56a1.24,1.24,0,1,1,0-1.75,1.27,1.27,0,0,1,0,1.75ZM66.09,27a.52.52,0,0,0-.37-.16.51.51,0,0,0-.37.16.52.52,0,0,0-.16.37.55.55,0,0,0,.16.38.5.5,0,0,0,.37.15.51.51,0,0,0,.37-.15.54.54,0,0,0,.15-.38A.51.51,0,0,0,66.09,27Z"/><circle class="cls-35" cx="2.25" cy="42.08" r="1.75"/><circle class="cls-35" cx="8.73" cy="35.61" r="1.75"/><circle class="cls-35" cx="13.94" cy="39.25" r="1.75"/><circle class="cls-35" cx="20.32" cy="32.77" r="1.75"/><path class="cls-40" d="M20.32,30.52a2.25,2.25,0,0,0-2.25,2.25A2.18,2.18,0,0,0,18.43,34l-3.32,3.36a2.21,2.21,0,0,0-2.68.25l-1.62-1.14a2.14,2.14,0,0,0,.17-.84A2.25,2.25,0,1,0,6.83,36.8L3.44,40.18a2.19,2.19,0,0,0-1.19-.35A2.25,2.25,0,1,0,4.5,42.08a2.21,2.21,0,0,0-.35-1.19l3.38-3.38a2.34,2.34,0,0,0,1.2.35,2.23,2.23,0,0,0,1.5-.59l1.62,1.13a2.38,2.38,0,0,0-.16.85A2.25,2.25,0,1,0,15.83,38l3.31-3.36a2.25,2.25,0,1,0,1.18-4.16ZM2.25,43.33A1.25,1.25,0,1,1,3.5,42.08,1.25,1.25,0,0,1,2.25,43.33Zm6.48-6.47A1.25,1.25,0,1,1,10,35.61,1.25,1.25,0,0,1,8.73,36.86Zm5.21,3.64a1.25,1.25,0,1,1,1.25-1.25A1.25,1.25,0,0,1,13.94,40.5ZM20.32,34a1.25,1.25,0,1,1,1.25-1.25A1.25,1.25,0,0,1,20.32,34Z"/></g></g></svg>