<svg xmlns="http://www.w3.org/2000/svg" xmlns:xlink="http://www.w3.org/1999/xlink" viewBox="0 0 100.51 54.1"><defs><style>.cls-1{fill:#e5e5e5;}.cls-2{fill:#fff;}.cls-3{fill:#26739e;opacity:0.5;}.cls-4{fill:#354557;}.cls-5{fill:#ca4b2f;}.cls-6{fill:#18c0dc;}</style><symbol id="Cases_from_the_real_world" data-name="Cases from the real world" viewBox="0 0 100.51 54.1"><rect class="cls-1" x="69.69" y="22.76" width="20.21" height="31.34"/><polygon class="cls-2" points="71.34 7.18 71.34 22.77 70.02 22.77 70.02 54.08 51.23 54.08 51.23 7.18 71.34 7.18"/><rect class="cls-3" x="56.3" y="48.72" width="10.14" height="5.37"/><path class="cls-4" d="M71.44,6.62H51.33a.57.57,0,0,0-.57.57v46.9h1.13V11.45h19V22.51a.57.57,0,1,0,1.13,0V7.19A.57.57,0,0,0,71.44,6.62ZM51.89,10.31V7.76h19v2.55Z"/><path class="cls-4" d="M56.35,18.36a.57.57,0,0,0,.57-.57V16.11a.57.57,0,0,0-1.13,0v1.68A.57.57,0,0,0,56.35,18.36Z"/><path class="cls-4" d="M61.38,18.36a.57.57,0,0,0,.57-.57V16.11a.57.57,0,0,0-1.13,0v1.68A.57.57,0,0,0,61.38,18.36Z"/><path class="cls-4" d="M66.41,15.55a.56.56,0,0,0-.56.56v1.68a.57.57,0,1,0,1.13,0V16.11A.56.56,0,0,0,66.41,15.55Z"/><path class="cls-4" d="M55.79,24.49a.57.57,0,1,0,1.13,0V22.82a.57.57,0,1,0-1.13,0Z"/><path class="cls-4" d="M60.82,24.49a.57.57,0,1,0,1.13,0V22.82a.57.57,0,1,0-1.13,0Z"/><path class="cls-4" d="M66.41,22.25a.57.57,0,0,0-.56.57v1.67a.57.57,0,1,0,1.13,0V22.82A.57.57,0,0,0,66.41,22.25Z"/><path class="cls-4" d="M55.79,31.2a.57.57,0,1,0,1.13,0V29.52a.57.57,0,0,0-1.13,0Z"/><path class="cls-4" d="M60.82,31.2a.57.57,0,1,0,1.13,0V29.52a.57.57,0,0,0-1.13,0Z"/><path class="cls-4" d="M66.41,29a.56.56,0,0,0-.56.56V31.2a.57.57,0,1,0,1.13,0V29.52A.56.56,0,0,0,66.41,29Z"/><path class="cls-4" d="M55.79,37.91a.57.57,0,0,0,1.13,0V36.23a.57.57,0,1,0-1.13,0Z"/><path class="cls-4" d="M60.82,37.91a.57.57,0,0,0,1.13,0V36.23a.57.57,0,1,0-1.13,0Z"/><path class="cls-4" d="M66.41,35.66a.57.57,0,0,0-.56.57v1.68a.57.57,0,0,0,1.13,0V36.23A.57.57,0,0,0,66.41,35.66Z"/><path class="cls-4" d="M55.79,44.61a.57.57,0,1,0,1.13,0V42.94a.57.57,0,1,0-1.13,0Z"/><path class="cls-4" d="M60.82,44.61a.57.57,0,1,0,1.13,0V42.94a.57.57,0,1,0-1.13,0Z"/><path class="cls-4" d="M66.41,42.37a.56.56,0,0,0-.56.57v1.67a.57.57,0,1,0,1.13,0V42.94A.56.56,0,0,0,66.41,42.37Z"/><path class="cls-4" d="M67,48.81v5.28H65.85V49.37H62v4.72H60.82V49.37h-3.9v4.72H55.79V48.81a.56.56,0,0,1,.56-.57H66.41A.56.56,0,0,1,67,48.81Z"/><path class="cls-4" d="M90.45,45.36v8.73H89.32V45.36a.57.57,0,0,1,1.13,0Z"/><path class="cls-4" d="M89.88,22.26H69.77a.56.56,0,0,0-.57.56V54.09h1.13V26.74h19V37.16a.57.57,0,1,0,1.13,0V22.82A.56.56,0,0,0,89.88,22.26Zm-.56,3.35h-19V23.39h19Z"/><path class="cls-4" d="M74.79,31.77a.57.57,0,0,0,.57-.57V29.52a.57.57,0,0,0-1.13,0V31.2A.57.57,0,0,0,74.79,31.77Z"/><path class="cls-4" d="M79.82,31.77a.57.57,0,0,0,.57-.57V29.52a.57.57,0,0,0-1.13,0V31.2A.57.57,0,0,0,79.82,31.77Z"/><path class="cls-4" d="M84.85,29a.56.56,0,0,0-.56.56V31.2a.57.57,0,1,0,1.13,0V29.52A.56.56,0,0,0,84.85,29Z"/><path class="cls-4" d="M74.23,37.91a.57.57,0,0,0,1.13,0V36.23a.57.57,0,1,0-1.13,0Z"/><path class="cls-4" d="M79.26,37.91a.57.57,0,0,0,1.13,0V36.23a.57.57,0,1,0-1.13,0Z"/><path class="cls-4" d="M84.85,35.66a.57.57,0,0,0-.56.57v1.68a.57.57,0,0,0,1.13,0V36.23A.57.57,0,0,0,84.85,35.66Z"/><path class="cls-4" d="M74.23,44.61a.57.57,0,1,0,1.13,0V42.94a.57.57,0,1,0-1.13,0Z"/><path class="cls-4" d="M79.26,44.61a.57.57,0,1,0,1.13,0V42.94a.57.57,0,1,0-1.13,0Z"/><path class="cls-4" d="M84.85,42.37a.56.56,0,0,0-.56.57v1.67a.57.57,0,1,0,1.13,0V42.94A.56.56,0,0,0,84.85,42.37Z"/><path class="cls-4" d="M85.42,48.81v5.28H84.29V49.37h-3.9v4.72H79.26V49.37h-3.9v4.72H74.23V48.81a.56.56,0,0,1,.56-.57H84.85A.56.56,0,0,1,85.42,48.81Z"/><g id="_Group_" data-name="&lt;Group&gt;"><circle class="cls-5" cx="94.07" cy="41.26" r="5.87"/></g><path class="cls-4" d="M94.07,34.83a6.43,6.43,0,0,0-.56,12.84v6.42h1.13V47.67a6.43,6.43,0,0,0-.57-12.84Zm.57,11.7V44.29a3.09,3.09,0,0,0,2.52-3,.57.57,0,0,0-1.14,0,2,2,0,0,1-1.38,1.86V41.26a.57.57,0,0,0-1.13,0v1.86a2,2,0,0,1-1.38-1.86.57.57,0,0,0-1.14,0,3.09,3.09,0,0,0,2.52,3v2.24a5.3,5.3,0,1,1,1.13,0Z"/><rect class="cls-2" x="14.11" y="0.77" width="33.03" height="53.3"/><g id="_Group_2" data-name="&lt;Group&gt;"><polygon class="cls-6" points="22.57 54.08 38.28 54.08 38.28 45.09 22.57 45.09 22.57 54.08"/></g><g id="_Group_3" data-name="&lt;Group&gt;"><polygon class="cls-1" points="0.1 54.08 14.06 54.08 14.06 29.9 0.1 29.9 0.1 54.08"/></g><path class="cls-4" d="M9.93,34H4.7a.6.6,0,0,0-.6.6v5.23a.59.59,0,0,0,.6.59H9.93a.6.6,0,0,0,.6-.59V34.63A.6.6,0,0,0,9.93,34Zm-.59,5.24h-4V35.21H9.34Z"/><path class="cls-4" d="M9.93,43.63H4.7a.6.6,0,0,0-.6.6v5.23a.59.59,0,0,0,.6.59H9.93a.6.6,0,0,0,.6-.59V44.23A.6.6,0,0,0,9.93,43.63Zm-.59,5.24h-4V44.81H9.34Z"/><path class="cls-4" d="M40,44.51H20.83a.59.59,0,1,0,0,1.17H22v8.41h1.18V45.68h6.67v8.41H31V45.68h6.67v8.41h1.19V45.68H40a.59.59,0,0,0,0-1.17Z"/><path class="cls-4" d="M47,0H13.84a.59.59,0,0,0-.59.59V29.24H.52a.52.52,0,0,0-.52.53v24.3H1V30.29H13.17V54.07h.08v0h1.19V1.18h32V54.09h1.17V.59A.58.58,0,0,0,47,0Z"/><path class="cls-4" d="M41.76,5.24H36.53a.58.58,0,0,0-.58.59v5.23a.58.58,0,0,0,.58.59h5.23a.59.59,0,0,0,.6-.59V5.83A.59.59,0,0,0,41.76,5.24Zm-.58,5.23H37.12V6.41h4.06Z"/><path class="cls-4" d="M27.8,11.65H33a.59.59,0,0,0,.59-.59V5.83A.59.59,0,0,0,33,5.24H27.8a.59.59,0,0,0-.59.59v5.23A.59.59,0,0,0,27.8,11.65Zm.6-5.24h4.05v4.06H28.4Z"/><path class="cls-4" d="M19.08,11.65h5.24a.59.59,0,0,0,.59-.59V5.83a.59.59,0,0,0-.59-.59H19.08a.59.59,0,0,0-.59.59v5.23A.59.59,0,0,0,19.08,11.65Zm.59-5.24h4v4.06h-4Z"/><path class="cls-4" d="M41.76,14.84H36.53a.58.58,0,0,0-.58.59v5.23a.58.58,0,0,0,.58.59h5.23a.59.59,0,0,0,.6-.59V15.43A.59.59,0,0,0,41.76,14.84Zm-.58,5.23H37.12V16h4.06Z"/><path class="cls-4" d="M27.21,20.66a.59.59,0,0,0,.59.59H33a.59.59,0,0,0,.59-.59V15.43a.59.59,0,0,0-.59-.59H27.8a.59.59,0,0,0-.59.59ZM28.4,16h4.05v4.06H28.4Z"/><path class="cls-4" d="M18.49,20.66a.59.59,0,0,0,.59.59h5.24a.59.59,0,0,0,.59-.59V15.43a.59.59,0,0,0-.59-.59H19.08a.59.59,0,0,0-.59.59ZM19.67,16h4v4.06h-4Z"/><path class="cls-4" d="M41.76,24.43H36.53A.59.59,0,0,0,36,25v5.23a.58.58,0,0,0,.58.59h5.23a.59.59,0,0,0,.6-.59V25A.6.6,0,0,0,41.76,24.43Zm-.58,5.24H37.12V25.61h4.06Z"/><path class="cls-4" d="M27.21,30.26a.59.59,0,0,0,.59.59H33a.59.59,0,0,0,.59-.59V25a.6.6,0,0,0-.59-.6H27.8a.6.6,0,0,0-.59.6Zm1.19-4.65h4.05v4.06H28.4Z"/><path class="cls-4" d="M18.49,30.26a.59.59,0,0,0,.59.59h5.24a.59.59,0,0,0,.59-.59V25a.6.6,0,0,0-.59-.6H19.08a.6.6,0,0,0-.59.6Zm1.18-4.65h4v4.06h-4Z"/><path class="cls-4" d="M41.76,34H36.53a.59.59,0,0,0-.58.6v5.23a.58.58,0,0,0,.58.59h5.23a.59.59,0,0,0,.6-.59V34.63A.59.59,0,0,0,41.76,34Zm-.58,5.24H37.12V35.21h4.06Z"/><path class="cls-4" d="M27.21,39.86a.59.59,0,0,0,.59.59H33a.59.59,0,0,0,.59-.59V34.63A.59.59,0,0,0,33,34H27.8a.59.59,0,0,0-.59.6Zm1.19-4.65h4.05v4.06H28.4Z"/><path class="cls-4" d="M24.91,39.86V34.63a.59.59,0,0,0-.59-.6H19.08a.59.59,0,0,0-.59.6v5.23a.59.59,0,0,0,.59.59h5.24A.59.59,0,0,0,24.91,39.86Zm-1.19-.59h-4V35.21h4Z"/><path class="cls-4" d="M33.46,49.91a.6.6,0,0,0-.65-.12.55.55,0,0,0-.19.12.63.63,0,0,0,0,.84.66.66,0,0,0,.42.17.51.51,0,0,0,.22-.05.56.56,0,0,0,.2-.12.69.69,0,0,0,.13-.2.63.63,0,0,0,0-.44A.69.69,0,0,0,33.46,49.91Z"/><path class="cls-4" d="M28.22,49.91a.6.6,0,0,0-.83,0,.53.53,0,0,0-.13.2.51.51,0,0,0-.05.22.6.6,0,0,0,.18.42.55.55,0,0,0,.19.12.59.59,0,0,0,.22.05.59.59,0,0,0,.23-.05.55.55,0,0,0,.19-.12.6.6,0,0,0,.18-.42.51.51,0,0,0,0-.22A.53.53,0,0,0,28.22,49.91Z"/></symbol></defs><title>cases-from-real-world</title><g id="Layer_2" data-name="Layer 2"><g id="Layer_1-2" data-name="Layer 1"><use id="Cases_from_the_real_world-3" data-name="Cases from the real world" width="100.51" height="54.1" xlink:href="#Cases_from_the_real_world"/></g></g></svg>