<svg xmlns="http://www.w3.org/2000/svg" xmlns:xlink="http://www.w3.org/1999/xlink" viewBox="0 0 112.49 56.65"><defs><style>.cls-1{fill:none;clip-rule:evenodd;}.cls-2{fill:#a11d21;}.cls-3,.cls-4,.cls-5,.cls-6,.cls-7,.cls-8{fill:#354557;}.cls-4{opacity:0.3;}.cls-5{opacity:0.2;}.cls-6{opacity:0.1;}.cls-7{opacity:0.05;}.cls-8{opacity:0.6;}.cls-9{fill:#f2f2f3;}.cls-10,.cls-12{fill:#093d4c;}.cls-11{fill:#f9e5ce;}.cls-11,.cls-12,.cls-13,.cls-16,.cls-23,.cls-24{fill-rule:evenodd;}.cls-13{fill:#a6dde8;}.cls-14{clip-path:url(#clip-path);}.cls-15,.cls-23{fill:#e1bfa0;}.cls-16{fill:#f2dcc7;}.cls-17{clip-path:url(#clip-path-2);}.cls-18{fill:#f1f1f8;}.cls-19{clip-path:url(#clip-path-3);}.cls-20{fill:#fff;}.cls-21{fill:#26739e;}.cls-22{fill:#ba6d62;}.cls-24{fill:#d34f32;}.cls-25{clip-path:url(#clip-path-4);}.cls-26{fill:#18c0dc;}</style><clipPath id="clip-path"><path class="cls-1" d="M66.61,25.15v4.21c-.14.14-.27.27-.42.4l-.78.69a6,6,0,0,1-4.54,1.63,6,6,0,0,1-4.55-1.63l-.78-.69-.42-.4V25.15Z"/></clipPath><clipPath id="clip-path-2"><path class="cls-1" d="M73.67,42.87l-3.18-2.2-3.07,1.17a7.34,7.34,0,0,0-3.12,2.24l2-2.44A7.69,7.69,0,0,0,68,36.82V33.23l4.15,3.05Z"/></clipPath><clipPath id="clip-path-3"><path class="cls-1" d="M57.44,44.08a7.38,7.38,0,0,0-3.13-2.24l-3.06-1.17-3.19,2.2,1.5-6.59,4.15-3.05v3.59a7.63,7.63,0,0,0,1.74,4.82Z"/></clipPath><clipPath id="clip-path-4"><path class="cls-2" d="M63.56,26.43v0c0,1.05-1.23,1.9-2.74,1.9s-2.73-.85-2.73-1.9v0Z"/></clipPath><symbol id="Think_It_Through" data-name="Think ​It ​Through" viewBox="0 0 112.49 56.65"><circle class="cls-3" cx="44.67" cy="50.67" r="1.88"/><circle class="cls-3" cx="44.67" cy="43.45" r="1.88"/><circle class="cls-4" cx="44.67" cy="36.24" r="1.88"/><circle class="cls-5" cx="44.67" cy="29.02" r="1.88"/><circle class="cls-6" cx="44.67" cy="21.8" r="1.88"/><circle class="cls-7" cx="44.67" cy="14.59" r="1.88"/><circle class="cls-3" cx="33.08" cy="50.67" r="1.88"/><circle class="cls-8" cx="33.08" cy="43.45" r="1.88"/><circle class="cls-4" cx="33.08" cy="36.24" r="1.88"/><circle class="cls-3" cx="55.65" cy="50.67" r="1.88"/><circle class="cls-3" cx="55.65" cy="43.45" r="1.88"/><circle class="cls-4" cx="55.65" cy="36.24" r="1.88"/><circle class="cls-5" cx="55.65" cy="29.02" r="1.88"/><circle class="cls-6" cx="55.65" cy="21.8" r="1.88"/><circle class="cls-7" cx="55.65" cy="14.59" r="1.88"/><circle class="cls-3" cx="66.63" cy="50.67" r="1.88"/><circle class="cls-3" cx="66.63" cy="43.45" r="1.88"/><circle class="cls-4" cx="66.63" cy="36.24" r="1.88"/><circle class="cls-5" cx="66.63" cy="29.02" r="1.88"/><circle class="cls-3" cx="77.61" cy="50.67" r="1.88"/><circle class="cls-3" cx="77.61" cy="43.45" r="1.88"/><circle class="cls-4" cx="77.61" cy="36.24" r="1.88"/><circle class="cls-5" cx="77.61" cy="29.02" r="1.88"/><circle class="cls-6" cx="77.61" cy="21.8" r="1.88"/><circle class="cls-3" cx="88.59" cy="50.67" r="1.88"/><circle class="cls-8" cx="88.59" cy="43.45" r="1.88"/><circle class="cls-4" cx="88.59" cy="36.24" r="1.88"/><circle class="cls-5" cx="88.59" cy="29.02" r="1.88"/><circle class="cls-6" cx="88.59" cy="21.8" r="1.88"/><circle class="cls-7" cx="88.59" cy="14.59" r="1.88"/><path class="cls-9" d="M43.89,14.27V12h0V.72A.72.72,0,0,0,43.15,0H25.84a.72.72,0,0,0-.72.72V12a.72.72,0,0,0,.72.72H42.46Z"/><circle class="cls-10" cx="31.4" cy="6.43" r="0.88"/><circle class="cls-10" cx="34.5" cy="6.43" r="0.88"/><circle class="cls-10" cx="37.61" cy="6.43" r="0.88"/><path class="cls-11" d="M83.2,53.17v3.48H38.54V53.17c0-6.32.78-14,7-15.06L48,37.56,50,37.15l.13,0a6.08,6.08,0,0,0,3.67-2.18,6.18,6.18,0,0,0,1.38-3.88V25.15H66.61v5.91A6.13,6.13,0,0,0,68,34.94a6,6,0,0,0,3.67,2.18l.13,0,1.9.41,2.53.55c6.19,1.11,7,8.74,7,15.06"/><path class="cls-12" d="M83.33,53.17v3.48H38.41V53.17c0-6.32.79-14,7-15.06l2.39-.52.15,0,1.92-.41.13,0a6.11,6.11,0,0,0,3-1.49,5.38,5.38,0,0,0,.66-.69v2a7.59,7.59,0,0,0,1.74,4.72l2,2.44a9.07,9.07,0,0,1,1.48,2.62l1.95,5.44v0c.1-.33,1.93-5.42,1.93-5.42a8.88,8.88,0,0,1,1.49-2.62l2-2.44A7.69,7.69,0,0,0,68,36.82V34.94a6,6,0,0,0,.64.69,6.17,6.17,0,0,0,3,1.49l.13,0,1.91.41.51.11,2,.44c6.23,1.11,7,8.74,7,15.06"/><path class="cls-13" d="M38.33,53.17v3.48h8.81l.44-1.72-9.16-5c0,.73-.07,1.46-.08,2.19,0,.35,0,.69,0,1"/><path class="cls-11" d="M38.33,53.17v3.48h8.31l-8.3-4.51c0,.35,0,.69,0,1"/><g class="cls-14"><rect class="cls-15" x="49.72" y="20.03" width="22.29" height="17.17"/></g><path class="cls-11" d="M68.64,12.67v7.67a25.06,25.06,0,0,1-.23,3.36,7.4,7.4,0,0,1-2.24,4.38l-.78.73a5.86,5.86,0,0,1-4.57,1.73,5.86,5.86,0,0,1-4.57-1.73l-.78-.73a7.45,7.45,0,0,1-2.24-4.38A25.06,25.06,0,0,1,53,20.34V12.67a7.8,7.8,0,0,1,1.76-4.94h0a7.82,7.82,0,0,1,12.07,0h0a7.83,7.83,0,0,1,1.79,5"/><path class="cls-16" d="M60.82,30.54a5.86,5.86,0,0,1-4.57-1.73l-.78-.73a7.45,7.45,0,0,1-2.24-4.38A25.06,25.06,0,0,1,53,20.34V12.67a7.8,7.8,0,0,1,1.76-4.94h0a7.8,7.8,0,0,1,6-2.86v14L60.46,24l.36.91Z"/><g class="cls-17"><rect class="cls-18" x="58.86" y="27.8" width="20.25" height="21.71"/></g><g class="cls-19"><rect class="cls-18" x="42.63" y="27.8" width="20.25" height="21.71"/></g><path class="cls-20" d="M58.87,19.66a1.78,1.78,0,0,0-1.75-1.39,1.43,1.43,0,0,0-1.49,1.34,1.81,1.81,0,0,0,1.58,1.07A2.07,2.07,0,0,0,58.87,19.66Z"/><circle class="cls-21" cx="57.25" cy="19.48" r="0.89"/><circle class="cls-3" cx="57.25" cy="19.48" r="0.34"/><circle class="cls-20" cx="57.65" cy="18.91" r="0.22"/><path class="cls-22" d="M55.2,18A.18.18,0,0,1,55,17.9a.19.19,0,0,1,.1-.26,3.35,3.35,0,0,1,1-.31l2.64.25a.2.2,0,0,1,.18.22.18.18,0,0,1-.21.18l-2.63-.25a3.58,3.58,0,0,0-.86.28Z"/><path class="cls-20" d="M62.66,19.66a1.79,1.79,0,0,1,1.75-1.4,1.44,1.44,0,0,1,1.5,1.35,1.81,1.81,0,0,1-1.59,1.08A2.07,2.07,0,0,1,62.66,19.66Z"/><circle class="cls-21" cx="64.28" cy="19.48" r="0.89"/><circle class="cls-3" cx="64.28" cy="19.48" r="0.34"/><circle class="cls-20" cx="64.82" cy="18.97" r="0.22"/><path class="cls-22" d="M66.33,18h-.07a3.62,3.62,0,0,0-.89-.28l-2.6.25a.19.19,0,0,1-.22-.18.2.2,0,0,1,.18-.22l2.63-.25h0a3,3,0,0,1,1,.31.2.2,0,0,1,.11.26A.2.2,0,0,1,66.33,18Z"/><path class="cls-13" d="M83.33,53.17v3.48h-8.8l-.45-1.72,9.16-5c0,.73.07,1.46.08,2.19,0,.35,0,.69,0,1"/><path class="cls-11" d="M83.33,53.17v3.48H75l8.3-4.51c0,.35,0,.69,0,1"/><path class="cls-23" d="M68.41,9.19,60.87,5.1,53.05,9.68l-.55,7.48c6.55-1.52,10.4-1.66,16.85,0Z"/><path class="cls-24" d="M72.7,19.1c-1-7.7-2.5-15-11.7-15.08h-.32c-5.93.08-10.39,3.73-11.27,12.86-2.42,25-3.38,30,6.21,30.72-1.57-4.83-2.57-6.56-2.57-14.24V18.18a6.59,6.59,0,0,1,.27-1.83,29.68,29.68,0,0,1,15.09,0,6.8,6.8,0,0,1,.27,1.86V33.33a44.32,44.32,0,0,1-1.92,12.94l-.41,1.34C77.23,46.79,74.28,31.39,72.7,19.1Z"/><path class="cls-2" d="M63.56,26.43v0c0,1.05-1.23,1.9-2.74,1.9s-2.73-.85-2.73-1.9v0Z"/><g class="cls-25"><path class="cls-20" d="M63.33,27a9.58,9.58,0,0,1-2.27.25h-.45a8.83,8.83,0,0,1-2.34-.31c-.06,0-.12-.53-.12-.53h5.34S63.46,26.94,63.33,27Z"/></g><path class="cls-26" d="M112.45,35h-3a4.13,4.13,0,0,0-4.12-4.12v-3A7.13,7.13,0,0,1,112.45,35Z"/><path class="cls-3" d="M105.33,42.21a7.17,7.17,0,1,1,0-14.33v3A4.17,4.17,0,1,0,109.49,35h3A7.17,7.17,0,0,1,105.33,42.21Z"/><circle class="cls-26" cx="2.25" cy="34.6" r="1.75"/><circle class="cls-26" cx="8.73" cy="28.12" r="1.75"/><circle class="cls-26" cx="13.94" cy="31.77" r="1.75"/><circle class="cls-26" cx="20.32" cy="25.29" r="1.75"/><path class="cls-10" d="M20.32,23a2.25,2.25,0,0,0-2.25,2.25,2.2,2.2,0,0,0,.36,1.21l-3.32,3.36a2.14,2.14,0,0,0-1.17-.34,2.25,2.25,0,0,0-1.51.58L10.81,29a2.19,2.19,0,0,0,.17-.85,2.25,2.25,0,1,0-4.15,1.2L3.44,32.7a2.19,2.19,0,0,0-1.19-.35A2.25,2.25,0,1,0,4.5,34.6a2.19,2.19,0,0,0-.35-1.19L7.53,30a2.23,2.23,0,0,0,2.7-.23l1.62,1.13a2.38,2.38,0,0,0-.16.85,2.25,2.25,0,1,0,4.14-1.21l3.31-3.36A2.25,2.25,0,1,0,20.32,23ZM2.25,35.85A1.25,1.25,0,1,1,3.5,34.6,1.25,1.25,0,0,1,2.25,35.85Zm6.48-6.48A1.25,1.25,0,1,1,10,28.12,1.25,1.25,0,0,1,8.73,29.37ZM13.94,33a1.25,1.25,0,1,1,1.25-1.25A1.25,1.25,0,0,1,13.94,33Zm6.38-6.48a1.25,1.25,0,1,1,1.25-1.25A1.25,1.25,0,0,1,20.32,26.54Z"/></symbol></defs><title>think-it-through</title><g id="Layer_2" data-name="Layer 2"><g id="Layer_1-2" data-name="Layer 1"><use id="Think_It_Through-3" data-name="Think ​It ​Through" width="112.49" height="56.65" xlink:href="#Think_It_Through"/></g></g></svg>