<svg id="Layer_1" data-name="Layer 1" xmlns="http://www.w3.org/2000/svg" viewBox="0 0 21 23.76"><defs><style>.cls-1{fill:#28739e;}.cls-2{fill:#384557;}</style></defs><title>thoughtprovoker</title><path class="cls-1" d="M21,23.76H0V0H21ZM.86,22.89H20.14V.86H.86Z"/><path class="cls-2" d="M8.83,17.05s0,0,0,0v-.77A.18.18,0,0,1,9,16.07h3a.16.16,0,0,1,.16.15V17a0,0,0,0,1,0,0Zm.3-.31h2.74s0-.36,0-.36H9.14A2.17,2.17,0,0,0,9.13,16.74Z"/><path class="cls-2" d="M12,14.83H9a.16.16,0,0,1-.16-.13,5.66,5.66,0,0,0-.31-1.4l-.15-.24a4.43,4.43,0,0,1-.77-2.12,2.87,2.87,0,0,1,5.74,0,4.43,4.43,0,0,1-.77,2.12l-.15.24a5.66,5.66,0,0,0-.31,1.4A.16.16,0,0,1,12,14.83Zm-2.83-.3h2.7a5,5,0,0,1,.34-1.38l.14-.25a4.1,4.1,0,0,0,.74-2,2.57,2.57,0,1,0-5.14,0,4.1,4.1,0,0,0,.74,2l.14.25A5,5,0,0,1,9.15,14.53Z"/><path class="cls-2" d="M12,15.34H9a.15.15,0,0,1-.15-.15v-.52A.15.15,0,0,1,9,14.52H12a.15.15,0,0,1,.15.15v.52A.15.15,0,0,1,12,15.34ZM9.11,15h2.78v-.21H9.11Z"/><path class="cls-2" d="M12,15.86H9a.15.15,0,0,1-.15-.15v-.52A.14.14,0,0,1,9,15H12a.15.15,0,0,1,.15.15v.52A.15.15,0,0,1,12,15.86Zm-2.93-.31h2.78v-.21H9.11Z"/><path class="cls-2" d="M12,16.38H9a.15.15,0,0,1-.15-.16v-.51A.15.15,0,0,1,9,15.55H12a.16.16,0,0,1,.15.16v.51A.16.16,0,0,1,12,16.38Zm-2.93-.31h2.78v-.21H9.11Z"/><path class="cls-2" d="M9.54,17.72s0,0,0,0v-.77a.21.21,0,0,1,.17-.18h1.63s.15.07.15.15v.82Zm.23-.31h1.46s0-.36,0-.36H9.77Z"/><path class="cls-2" d="M10.5,7a.16.16,0,0,1-.16-.16V5.71a.16.16,0,0,1,.32,0V6.8A.16.16,0,0,1,10.5,7Z"/><path class="cls-2" d="M15.56,10.93H14.47a.16.16,0,0,1,0-.32h1.09a.16.16,0,0,1,0,.32Z"/><path class="cls-2" d="M6.53,10.93H5.44a.16.16,0,0,1,0-.32H6.53a.16.16,0,1,1,0,.32Z"/><path class="cls-2" d="M13.3,8.13a.16.16,0,0,1-.11-.05.17.17,0,0,1,0-.23L14,7.08a.16.16,0,1,1,.22.22l-.77.78A.17.17,0,0,1,13.3,8.13Z"/><path class="cls-2" d="M6.92,14.51a.16.16,0,0,1-.11,0,.14.14,0,0,1,0-.22l.77-.78a.16.16,0,1,1,.23.23L7,14.46A.16.16,0,0,1,6.92,14.51Z"/><path class="cls-2" d="M14.08,14.51a.16.16,0,0,1-.11,0l-.78-.77a.16.16,0,1,1,.23-.23l.77.78a.14.14,0,0,1,0,.22A.16.16,0,0,1,14.08,14.51Z"/><path class="cls-2" d="M7.69,8.13a.16.16,0,0,1-.11-.05L6.81,7.3A.16.16,0,1,1,7,7.08l.78.77a.17.17,0,0,1,0,.23A.17.17,0,0,1,7.69,8.13Z"/><path class="cls-2" d="M12,7.27l-.06,0A.15.15,0,0,1,11.87,7l.42-1a.17.17,0,0,1,.21-.09.16.16,0,0,1,.08.21l-.41,1A.18.18,0,0,1,12,7.27Z"/><path class="cls-2" d="M15.18,12.87h-.07l-1-.42a.16.16,0,0,1-.08-.21.15.15,0,0,1,.21-.09l1,.42a.15.15,0,0,1,.08.21A.15.15,0,0,1,15.18,12.87Z"/><path class="cls-2" d="M6.83,9.41H6.77L5.76,9a.17.17,0,0,1-.09-.21.16.16,0,0,1,.21-.08l1,.41A.16.16,0,0,1,7,9.31.14.14,0,0,1,6.83,9.41Z"/><path class="cls-2" d="M14.16,9.41a.14.14,0,0,1-.14-.1.16.16,0,0,1,.08-.21l1-.42a.16.16,0,0,1,.21.09.15.15,0,0,1-.08.21l-1,.42Z"/><path class="cls-2" d="M5.82,12.87a.18.18,0,0,1-.15-.1.17.17,0,0,1,.09-.21l1-.42a.16.16,0,0,1,.21.09.16.16,0,0,1-.08.21l-1,.42Z"/><path class="cls-2" d="M9,7.27a.18.18,0,0,1-.15-.1l-.42-1A.16.16,0,0,1,8.5,6,.15.15,0,0,1,8.71,6l.42,1A.16.16,0,0,1,9,7.25Z"/></svg>