<?xml version="1.0" encoding="utf-8"?>
<!-- Generator: Adobe Illustrator 21.1.0, SVG Export Plug-In . SVG Version: 6.00 Build 0)  -->
<svg version="1.1" id="Icon" xmlns="http://www.w3.org/2000/svg" xmlns:xlink="http://www.w3.org/1999/xlink" x="0px" y="0px"
	 viewBox="0 0 8.7 8.7" style="enable-background:new 0 0 8.7 8.7;" xml:space="preserve">
<style type="text/css">
	.st0{fill:#F37541;}
</style>
<title>unit</title>
<path class="st0" d="M6.6,5.3v-2H6c-0.3,0-0.6-0.2-0.7-0.6c0,0,0-0.1,0-0.1V2h-2l0,0c0,0.2,0,0.4,0,0.6c0,0.3-0.2,0.6-0.6,0.7H2v2
	h0.7c0.3,0,0.6,0.3,0.6,0.6c0,0,0,0.1,0,0.1c0,0.7,0,1.3,0,2c0,0.3-0.2,0.6-0.6,0.7H0.7C0.3,8.6,0,8.3,0,8l0,0V6
	c0-0.3,0.2-0.6,0.6-0.7h0.7v-2H0.7C0.3,3.4,0,3.1,0,2.7c0,0,0,0,0,0v-2C0,0.3,0.2,0,0.6,0h2.1C3,0,3.3,0.3,3.3,0.6c0,0,0,0.1,0,0.1
	c0,0.2,0,0.4,0,0.6l0,0h2l0,0c0-0.2,0-0.4,0-0.6C5.3,0.3,5.5,0,5.9,0H8c0.3,0,0.6,0.2,0.6,0.6c0,0,0,0.1,0,0.1v2
	c0,0.3-0.2,0.6-0.6,0.7H7.3v2H8c0.3,0,0.6,0.3,0.6,0.6c0,0,0,0.1,0,0.1v2c0,0.4-0.3,0.7-0.7,0.7l0,0H6C5.6,8.7,5.3,8.4,5.3,8
	c0,0,0,0,0,0c0,0,0,0,0-0.1V6c0-0.3,0.3-0.6,0.6-0.7L6.6,5.3L6.6,5.3z M0.6,2.7h2v-2h-2V2.7z M7.9,0.7H6v2h2L7.9,0.7z M6,7.9h2V6H6
	V7.9z"/>
</svg>
