<svg xmlns="http://www.w3.org/2000/svg" xmlns:xlink="http://www.w3.org/1999/xlink" viewBox="0 0 86.08 53.85"><defs><style>.cls-1{fill:none;}.cls-2{isolation:isolate;}.cls-3{fill:#354557;}.cls-4{fill:#26739e;opacity:0.8;}.cls-5{opacity:0.5;mix-blend-mode:multiply;}.cls-6{fill:url(#linear-gradient);}.cls-16,.cls-7{fill:#2c2822;}.cls-10,.cls-11,.cls-12,.cls-13,.cls-7,.cls-8,.cls-9{fill-rule:evenodd;}.cls-8{fill:#5c4639;}.cls-9{fill:#ca4b2f;}.cls-10{fill:#513d3c;}.cls-11{fill:#554035;}.cls-12{fill:#513e36;}.cls-13{fill:#634f44;}.cls-14{fill:#e5e5e5;}.cls-15{fill:#fff;}.cls-17{fill:#a71e22;}.cls-18{fill:#aa2723;}.cls-19{clip-path:url(#clip-path);}</style><linearGradient id="linear-gradient" x1="38.72" y1="46.82" x2="38.72" y2="29.89" gradientUnits="userSpaceOnUse"><stop offset="0.35" stop-color="#1e2830" stop-opacity="0"/><stop offset="0.57" stop-color="#1e2830" stop-opacity="0.46"/><stop offset="0.82" stop-color="#1e2830" stop-opacity="0.86"/><stop offset="1" stop-color="#1e2830"/></linearGradient><clipPath id="clip-path"><path id="SVGID" class="cls-1" d="M49.33,25.18v0c0,.81-1.38,1.48-3.08,1.48s-3.07-.67-3.07-1.48v0Z"/></clipPath></defs><title>what-can-you-do</title><g class="cls-2"><g id="Layer_2" data-name="Layer 2"><g id="Layer_1-2" data-name="Layer 1"><path class="cls-3" d="M77.36,52.22c0,.53,0,1.06,0,1.58l-40,.05H0c0-.39,0-.78,0-1.17C0,42.54,8.41,33.25,18.65,34.32c3.94.41,7.22,2.1,10,1.79,8.93-1,12.06-10.88,20.92-11.24C64.91,24.24,77.36,37.11,77.36,52.22Z"/><path class="cls-4" d="M0,53.85H3.46a18.51,18.51,0,0,1,2.06-8C9.85,37.67,20.28,36,28,39.74l.09,0c-.59-.34.34-.11.85.08l.66-.16a16.08,16.08,0,0,1,2.3-.66c1.13-.5,2.23-1.09,3.32-1.64,7.17-3.61,13.68-6.13,21.83-6,9.34.21,16.25,7.47,16.66,16.67v.14c0,.31.07.62.09.94a1.92,1.92,0,0,0,0,.24c0,.31.07.62.08.93v.18c0,.3.07.6.08.9a13.35,13.35,0,0,1-.12,2.37h3.44c0-.52,0-1,0-1.58,0-15.11-12.45-28-27.78-27.35-8.86.36-12,10.24-20.92,11.24-2.79.31-6.07-1.38-10-1.79C8.41,33.25,0,42.54,0,52.68c0,.39,0,.78,0,1.17"/><g class="cls-5"><path class="cls-6" d="M73.94,50.9l0-.41c0-.22,0-.43-.06-.65l0-.49c0-.23,0-.46-.06-.69l0-.25V48.3A17,17,0,0,0,56.83,31.6c-7.7-.16-14,2.06-21,5.49a4.68,4.68,0,0,1-1.06.57,5,5,0,0,1-1,.56,4.78,4.78,0,0,1-.91.52,5.91,5.91,0,0,1-3.31.94l-.35.09-.35-.11a13.69,13.69,0,0,1-4.06-1.1,8.82,8.82,0,0,1-1.61-.41c-6.65-1-14,1.19-17.56,7.75a18.27,18.27,0,0,0-2.09,8H4A14.37,14.37,0,0,1,7,45a12.87,12.87,0,0,1,1.24-1.62,12.7,12.7,0,0,1,1.73-1.62l.19-.14c.26-.19.52-.36.79-.53l.42-.24c.21-.12.43-.23.65-.34l.65-.29.5-.19.44-.14a13,13,0,0,1,2.51-.71,14.81,14.81,0,0,1,3.35-.38,16,16,0,0,1,1.87.12,18.89,18.89,0,0,1,5.41,1.19,4.91,4.91,0,0,1,.71.21c.34.05.67.13,1,.2.6,0,1.2-.05,1.81-.06.93-.29,1.68-.52,1.82-.54l0-.32.16.31c.84-.36,1.68-.78,2.48-1.19l.82-.41c7.18-3.58,13.55-5.89,21.29-5.75a16.13,16.13,0,0,1,3.87.56,10.25,10.25,0,0,1,2.1.57,9.78,9.78,0,0,1,1.28.52,8.88,8.88,0,0,1,2.43,1.48,8.91,8.91,0,0,1,2.13,2l.16.18a9.93,9.93,0,0,1,1.65,2.31l0,0a10.54,10.54,0,0,1,1.11,2.29,11.37,11.37,0,0,1,1,3.44c0,.08,0,.16,0,.24a13.19,13.19,0,0,1,.28,1.57,16.51,16.51,0,0,1,.29,2.79,12,12,0,0,1-.07,3.23c.22,0,.44,0,.66,0h.12A13.79,13.79,0,0,0,74,51.54C74,51.32,74,51.11,73.94,50.9Z"/></g><path class="cls-7" d="M30.55,25.79c0,1.71,3,5.65,6.33,6.08s18.37,2.23,20,1.16,4.45-2.06,5.43-3.38.86-4.41,2.19-6.77,2.05-4,.47-6.55c-1-1.56.47-4.45-1.59-6.46S56,4.39,54.91,3.14s-4.67-1.79-5.4-.08c0,0-1.67-3.08-6.12-2.53s-8,4.33-9.33,5.91-5.1,4.41-4.92,6.68-2,4.55-1.55,6.55c.69,3.08,3,4.41,3,6.12"/><path class="cls-8" d="M68,50.56v3.29H25.5V50.56c0-6,.75-13.18,6.64-14.24l2.4-.51,1.81-.39.12,0a5.83,5.83,0,0,0,4.8-5.73V24.07H52.19v5.59A5.83,5.83,0,0,0,57,35.39l.12,0,1.81.39,2.4.51C67.21,37.38,68,44.59,68,50.56"/><path class="cls-9" d="M68,50.56v3.29H25.5V50.56c0-6,.75-13.18,6.64-14.24l2.4-.51,0,.14c1.4,5.34,5.83,8.4,12.15,8.4S57.48,41.29,58.88,36l0-.14,2.4.51C67.21,37.38,68,44.59,68,50.56"/><path class="cls-10" d="M59.66,35.74l0,.15c-1.49,5.34-6.2,8.4-12.93,8.4s-11.44-3.06-12.93-8.4l0-.15,1.93-.38,0,.06c1.17,4.21,4.76,7,11,7s9.87-2.86,11-7l0-.06Z"/><path class="cls-11" d="M52.14,24.05v4.23c-.13.14-.26.28-.4.41l-.73.69A5.57,5.57,0,0,1,46.68,31a5.54,5.54,0,0,1-4.32-1.64l-.74-.69a5,5,0,0,1-.39-.41V24.05Z"/><path class="cls-8" d="M53.63,20.19a24,24,0,0,1-.21,3.18,7,7,0,0,1-2.11,4.14l-.74.69a5.53,5.53,0,0,1-4.32,1.63,5.55,5.55,0,0,1-4.33-1.63l-.73-.69a7,7,0,0,1-2.12-4.14,24,24,0,0,1-.21-3.18V12.94a7.39,7.39,0,1,1,14.77,0Z"/><path class="cls-8" d="M53.63,20.19a24,24,0,0,1-.21,3.18,7,7,0,0,1-2.11,4.14l-.74.69a5.53,5.53,0,0,1-4.32,1.63,5.55,5.55,0,0,1-4.33-1.63l-.73-.69a7,7,0,0,1-2.12-4.14,24,24,0,0,1-.21-3.18V12.94a7.39,7.39,0,1,1,14.77,0Z"/><path class="cls-12" d="M46.25,29.83a5.55,5.55,0,0,1-4.33-1.63l-.73-.69a7,7,0,0,1-2.12-4.14,24,24,0,0,1-.21-3.18V12.94a7.39,7.39,0,0,1,7.39-7.38V16.75l-.64,4.58.64,1.39Z"/><path class="cls-7" d="M55.23,6.07,50.43,3.5s0,.12-.07.31L48.11,2.47,42.37,3.76l-6,5.14-3.68,8s5.74,3.72,6.17,1.24.51-5.91,2.27-6.25,2-2.7,2.78-4S47,8,49.48,7.78a1.62,1.62,0,0,0,.94-.38c.51,1.08,1.83,1.46,2.76,2.7.64.85.59,4.92.59,4.92l1.8.34L57,11.77Z"/><path class="cls-13" d="M68,50.56v3.29H59.64l-.42-1.62,8.66-4.71c0,.69.06,1.38.07,2.07,0,.33,0,.65,0,1"/><path class="cls-13" d="M25.41,50.56v3.29h8.32l.42-1.62-8.66-4.71c0,.69-.06,1.38-.07,2.07,0,.33,0,.65,0,1"/><circle class="cls-14" cx="76.06" cy="10.02" r="9.39"/><path class="cls-3" d="M76.06,0a10,10,0,1,0,10,10A10,10,0,0,0,76.06,0Zm0,18.79A8.77,8.77,0,1,1,84.83,10,8.79,8.79,0,0,1,76.06,18.79Z"/><rect class="cls-3" x="75.3" y="12.45" width="1.59" height="1.54"/><path class="cls-3" d="M78,6.63a3.32,3.32,0,0,0-2-.58,2.78,2.78,0,0,0-1.54.41,2.46,2.46,0,0,0-1.06,2.15H74.9a1.49,1.49,0,0,1,.26-.85A.93.93,0,0,1,76,7.35a1,1,0,0,1,.87.33,1.3,1.3,0,0,1,.23.74,1.07,1.07,0,0,1-.21.64,1.34,1.34,0,0,1-.31.32l-.39.3a2.19,2.19,0,0,0-.71.79,4.27,4.27,0,0,0-.17,1.25h1.44a2.73,2.73,0,0,1,.07-.63,1.17,1.17,0,0,1,.41-.56l.38-.3a4.08,4.08,0,0,0,.78-.73,2,2,0,0,0,.34-1.17A2,2,0,0,0,78,6.63Z"/><path class="cls-15" d="M44.15,17.13a1.8,1.8,0,0,0-1.76-1.39,1.43,1.43,0,0,0-1.49,1.34,1.81,1.81,0,0,0,1.58,1.07A2.11,2.11,0,0,0,44.15,17.13Z"/><circle class="cls-16" cx="42.52" cy="16.94" r="0.89"/><circle cx="42.52" cy="16.94" r="0.34"/><circle class="cls-15" cx="42.92" cy="16.38" r="0.22"/><path class="cls-15" d="M48.5,17.13a1.78,1.78,0,0,1,1.75-1.4,1.43,1.43,0,0,1,1.49,1.35,1.78,1.78,0,0,1-1.58,1.08A2,2,0,0,1,48.5,17.13Z"/><circle class="cls-16" cx="50.12" cy="16.94" r="0.89"/><circle cx="50.12" cy="16.94" r="0.34"/><circle class="cls-15" cx="50.66" cy="16.44" r="0.22"/><path class="cls-16" d="M44.49,14.56a3.64,3.64,0,0,1,.62.74h0A3.19,3.19,0,0,0,44.49,14.56Z"/><path class="cls-17" d="M54.83,15.23H53.2a3.58,3.58,0,0,0-.63-.72,3.44,3.44,0,0,0-4.27-.17H44.2l-.09-.07a3.34,3.34,0,0,0-1.9-.59,3.46,3.46,0,0,0-2.88,1.55H37.87a.36.36,0,0,0-.36.36.37.37,0,0,0,.36.37H39a3.44,3.44,0,0,0,3.24,4.6,3.45,3.45,0,0,0,3.44-3.44,2.9,2.9,0,0,0-.13-.89.06.06,0,0,0,0,0,.71.71,0,0,1,.39-.63.64.64,0,0,1,.33-.08.68.68,0,0,1,.34.08.71.71,0,0,1,.39.63.17.17,0,0,0,0,.07,3.49,3.49,0,0,0-.11.86,3.44,3.44,0,0,0,6.66,1.21.35.35,0,0,0-.21-.46.35.35,0,0,0-.46.21,2.72,2.72,0,1,1-2.55-3.68A2.7,2.7,0,0,1,53,16.69a.36.36,0,1,0,.71-.11,3.32,3.32,0,0,0-.16-.62h1.27a.37.37,0,0,0,.36-.37A.36.36,0,0,0,54.83,15.23ZM42.21,19.84a2.72,2.72,0,1,1,2.71-2.72A2.72,2.72,0,0,1,42.21,19.84Zm2.91-4.55h0a3.48,3.48,0,0,0-.41-.52H46A1.44,1.44,0,0,0,45.12,15.29Zm2.28,0a1.43,1.43,0,0,0-.84-.52H47.8A3.42,3.42,0,0,0,47.4,15.3Z"/><path class="cls-18" d="M49.33,25.18v0c0,1-1.38,1.79-3.08,1.79s-3.07-.8-3.07-1.79v0Z"/><g class="cls-19"><path class="cls-15" d="M48.82,25.82c-.73.38-4.86.42-5.38-.16a1.64,1.64,0,0,1-.25-.49h6.1A1.21,1.21,0,0,1,48.82,25.82Z"/></g></g></g></g></svg>