<svg xmlns="http://www.w3.org/2000/svg" xmlns:xlink="http://www.w3.org/1999/xlink" viewBox="0 0 105.97 58.41"><defs><style>.cls-1,.cls-32{fill:none;}.cls-1,.cls-3,.cls-4{clip-rule:evenodd;}.cls-2{fill:#a11d21;}.cls-17,.cls-19,.cls-3{fill:#a63b2c;}.cls-21,.cls-23,.cls-4{fill:#fff;}.cls-10,.cls-5,.cls-6,.cls-7,.cls-8,.cls-9{fill:#354557;}.cls-6{opacity:0.3;}.cls-7{opacity:0.2;}.cls-8{opacity:0.1;}.cls-9{opacity:0.05;}.cls-10{opacity:0.6;}.cls-11{fill:#f47540;}.cls-12{clip-path:url(#clip-path);}.cls-13,.cls-15{fill:#e1bfa0;}.cls-14{clip-path:url(#clip-path-2);}.cls-15,.cls-16,.cls-17,.cls-21,.cls-26,.cls-27,.cls-29,.cls-32{fill-rule:evenodd;}.cls-16{fill:#ca4b2f;}.cls-18{clip-path:url(#clip-path-3);}.cls-20{clip-path:url(#clip-path-4);}.cls-22{clip-path:url(#clip-path-5);}.cls-24{clip-path:url(#clip-path-6);}.cls-25{clip-path:url(#clip-path-7);}.cls-26{fill:#f7dec1;}.cls-27{fill:#e6ceb8;}.cls-28{clip-path:url(#clip-path-8);}.cls-29{fill:#b47d2b;}.cls-30{clip-path:url(#clip-path-9);}.cls-31{fill:#18c0dc;}.cls-32{stroke:#926527;stroke-linecap:round;stroke-miterlimit:10;stroke-width:0.8px;}.cls-33{fill:#093d4c;}.cls-34{fill:#e5e5e5;}</style><clipPath id="clip-path"><path id="SVGID" class="cls-1" d="M45.81,21.52l-.49-.78a2.16,2.16,0,0,0-1.45-1,1.26,1.26,0,0,0-1.46,1.48l.6,2.95a3.43,3.43,0,0,0,2.43,2.64l.87.25Z"/></clipPath><clipPath id="clip-path-2"><path id="SVGID-2" data-name="SVGID" class="cls-1" d="M62.21,27.07l.87-.25a3.43,3.43,0,0,0,2.43-2.64l.6-2.95a1.26,1.26,0,0,0-1.46-1.48,2.16,2.16,0,0,0-1.45,1l-.49.78Z"/></clipPath><clipPath id="clip-path-3"><path id="SVGID-3" data-name="SVGID" class="cls-3" d="M62,35.26a21,21,0,0,1-3.13,4.07l-.47.16a4.78,4.78,0,0,0-3,3.09l-1.16,3.69,2.16-3.35a2.8,2.8,0,0,1,2.45-1.26l4,5.6a17.52,17.52,0,0,0,1.41-7.37v-2A7.54,7.54,0,0,1,62,35.26"/></clipPath><clipPath id="clip-path-4"><path id="SVGID-4" data-name="SVGID" class="cls-3" d="M50.12,39.49l-.47-.16a23.9,23.9,0,0,1-2.47-3l-1.32,0a7.28,7.28,0,0,1-1.62,1.61v2a17.68,17.68,0,0,0,1.41,7.37l4-5.6A2.7,2.7,0,0,1,52.26,43l2,3.32L53.1,42.58a4.78,4.78,0,0,0-3-3.09"/></clipPath><clipPath id="clip-path-5"><path id="SVGID-5" data-name="SVGID" class="cls-4" d="M62.87,44.93h0a17.67,17.67,0,0,0,1.42-7.37l-2.22-2.41a20.31,20.31,0,0,1-3.2,4.19l4,5.59Z"/></clipPath><clipPath id="clip-path-6"><path id="SVGID-6" data-name="SVGID" class="cls-4" d="M45.65,44.92l4-5.59a20.67,20.67,0,0,1-3.2-4.19l-2.22,2.41a17.83,17.83,0,0,0,1.42,7.37h0Z"/></clipPath><clipPath id="clip-path-7"><path id="SVGID-7" data-name="SVGID" class="cls-1" d="M46.82,33.54a7,7,0,0,0,.75,1l2,1.93a5.38,5.38,0,0,0,3.72,1.47h2A5.38,5.38,0,0,0,59,36.44l2-1.93a7,7,0,0,0,.75-1V28.9H46.82Z"/></clipPath><clipPath id="clip-path-8"><path id="SVGID-8" data-name="SVGID" class="cls-1" d="M45.65,13.59v-.05a3.28,3.28,0,0,1,2-2.69c2.28-.88,3.26.56,6.53.56s4.24-1.44,6.52-.56a3.27,3.27,0,0,1,2,2.69.09.09,0,0,0,0,.05h.84a8.51,8.51,0,0,0-3.22-6.51,12.58,12.58,0,0,0-6.15-1.5,12.83,12.83,0,0,0-5.68,1.25A8.5,8.5,0,0,0,45,13.59Z"/></clipPath><clipPath id="clip-path-9"><path id="SVGID-9" data-name="SVGID" class="cls-2" d="M58.56,30V30c0,1.2-2,2.17-4.34,2.17s-4.33-1-4.33-2.17V30Z"/></clipPath><symbol id="Work_it_Out" data-name="Work it Out" viewBox="0 0 105.97 58.41"><circle class="cls-5" cx="36.84" cy="54.81" r="1.92"/><circle class="cls-5" cx="36.84" cy="47.47" r="1.92"/><circle class="cls-6" cx="36.84" cy="40.13" r="1.92"/><circle class="cls-7" cx="36.84" cy="32.79" r="1.92"/><circle class="cls-8" cx="36.84" cy="25.44" r="1.92"/><circle class="cls-9" cx="36.84" cy="18.1" r="1.92"/><circle class="cls-5" cx="25.06" cy="54.81" r="1.92"/><circle class="cls-10" cx="25.06" cy="47.47" r="1.92"/><circle class="cls-6" cx="25.06" cy="40.13" r="1.92"/><circle class="cls-5" cx="48.01" cy="54.81" r="1.92"/><circle class="cls-5" cx="48.01" cy="47.47" r="1.92"/><circle class="cls-6" cx="48.01" cy="40.13" r="1.92"/><circle class="cls-7" cx="48.01" cy="32.79" r="1.92"/><circle class="cls-8" cx="48.01" cy="25.44" r="1.92"/><circle class="cls-9" cx="48.01" cy="18.1" r="1.92"/><circle class="cls-5" cx="59.19" cy="54.81" r="1.92"/><circle class="cls-5" cx="59.19" cy="47.47" r="1.92"/><circle class="cls-6" cx="59.19" cy="40.13" r="1.92"/><circle class="cls-7" cx="59.19" cy="32.79" r="1.92"/><circle class="cls-5" cx="70.36" cy="54.81" r="1.92"/><circle class="cls-5" cx="70.36" cy="47.47" r="1.92"/><circle class="cls-6" cx="70.36" cy="40.13" r="1.92"/><circle class="cls-7" cx="70.36" cy="32.79" r="1.92"/><circle class="cls-8" cx="70.36" cy="25.44" r="1.92"/><circle class="cls-5" cx="81.53" cy="54.81" r="1.92"/><circle class="cls-10" cx="81.53" cy="47.47" r="1.92"/><circle class="cls-6" cx="81.53" cy="40.13" r="1.92"/><circle class="cls-7" cx="81.53" cy="32.79" r="1.92"/><circle class="cls-8" cx="81.53" cy="25.44" r="1.92"/><circle class="cls-9" cx="81.53" cy="18.1" r="1.92"/><path class="cls-11" d="M9.36,50.22h-2a2.7,2.7,0,0,0-2.7-2.7v-2A4.68,4.68,0,0,1,9.36,50.22Z"/><path class="cls-5" d="M4.69,54.91a4.7,4.7,0,0,1,0-9.39v2a2.73,2.73,0,1,0,2.73,2.73h2A4.7,4.7,0,0,1,4.69,54.91Z"/><g class="cls-12"><rect class="cls-13" x="36.81" y="14.15" width="15.09" height="18.51"/></g><g class="cls-14"><rect class="cls-13" x="56.63" y="14.15" width="15.09" height="18.51"/></g><path id="SVGID-10" data-name="SVGID" class="cls-15" d="M80.56,58.41v-7.3a9.63,9.63,0,0,0-5.91-8.89L64.14,37.81a4,4,0,0,1-2.44-3.66V28.9H46.82v5.25a4,4,0,0,1-2.44,3.66L33.87,42.22A9.63,9.63,0,0,0,28,51.11v7.3Z"/><path class="cls-16" d="M74.65,42.22,64.14,37.81a4,4,0,0,1-2.23-2.41,18.2,18.2,0,0,1-2.11,2.9c-.29.34-.6.68-.93,1l-.47.16a4.78,4.78,0,0,0-3,3.09l-.22.7-.94,3L53.1,42.58a4.78,4.78,0,0,0-3-3.09l-.47-.16-.16-.18c-.37-.39-.71-.78-1-1.16-.1-.11-.18-.22-.27-.33-.36-.44-.71-.89-1-1.34-.21-.3-.39-.61-.57-.92a4,4,0,0,1-2.23,2.41L33.87,42.22A9.63,9.63,0,0,0,28,51.11v7.3h52.6v-7.3a9.63,9.63,0,0,0-5.91-8.89"/><path id="SVGID-11" data-name="SVGID" class="cls-17" d="M62,35.26a21,21,0,0,1-3.13,4.07l-.47.16a4.78,4.78,0,0,0-3,3.09l-1.16,3.69,2.16-3.35a2.8,2.8,0,0,1,2.45-1.26l4,5.6a17.52,17.52,0,0,0,1.41-7.37v-2A7.54,7.54,0,0,1,62,35.26"/><g class="cls-18"><rect class="cls-19" x="48.68" y="29.68" width="21.19" height="23.16"/></g><path id="SVGID-12" data-name="SVGID" class="cls-17" d="M50.12,39.49l-.47-.16a23.9,23.9,0,0,1-2.47-3l-1.32,0a7.28,7.28,0,0,1-1.62,1.61v2a17.68,17.68,0,0,0,1.41,7.37l4-5.6A2.7,2.7,0,0,1,52.26,43l2,3.32L53.1,42.58a4.78,4.78,0,0,0-3-3.09"/><g class="cls-20"><rect class="cls-19" x="38.65" y="30.71" width="21.19" height="22.13"/></g><path id="SVGID-13" data-name="SVGID" class="cls-21" d="M62.87,44.93h0a17.67,17.67,0,0,0,1.42-7.37l-2.22-2.41a20.31,20.31,0,0,1-3.2,4.19l4,5.59Z"/><g class="cls-22"><rect class="cls-23" x="53.29" y="29.56" width="16.58" height="20.95"/></g><path id="SVGID-14" data-name="SVGID" class="cls-21" d="M45.65,44.92l4-5.59a20.67,20.67,0,0,1-3.2-4.19l-2.22,2.41a17.83,17.83,0,0,0,1.42,7.37h0Z"/><g class="cls-24"><rect class="cls-23" x="38.65" y="29.56" width="16.58" height="20.95"/></g><g class="cls-25"><rect class="cls-13" x="41.24" y="23.31" width="26.05" height="20.18"/></g><path class="cls-26" d="M55.2,35.9a5.42,5.42,0,0,0,3.72-1.48l2-1.92a6.8,6.8,0,0,0,1.82-3.94L63.33,23a28.81,28.81,0,0,0,.19-3.35V14A8.53,8.53,0,0,0,55,5.44H53.43A8.53,8.53,0,0,0,44.9,14v5.66A31.19,31.19,0,0,0,45.08,23l.62,5.57a6.8,6.8,0,0,0,1.82,3.94l2,1.92a5.42,5.42,0,0,0,3.72,1.48Z"/><path class="cls-27" d="M54.38,5.44h-1A8.53,8.53,0,0,0,44.9,14v5.66A31.19,31.19,0,0,0,45.08,23l.62,5.57a6.8,6.8,0,0,0,1.82,3.94l2,1.92a5.42,5.42,0,0,0,3.72,1.48h1.16V27.72l-.8-1.16.8-5.28Z"/><g class="cls-28"><rect class="cls-13" x="39.38" width="29.77" height="19.17"/></g><path class="cls-29" d="M63.15,8.42c-.11-.15-.23-.28-.35-.42-.12-.8-1.36-1.81-1.36-1.81a.5.5,0,0,1-.23.33,10.78,10.78,0,0,0-3.65-1.64A2.22,2.22,0,0,1,56.44,4a3.4,3.4,0,0,1-1.23.5c-.34,0-.68,0-1,0h-.11a13.29,13.29,0,0,1-2.51-1c-.38-.18-2.38,2.07-6.07-.12a26,26,0,0,1,.19,3.62,8.87,8.87,0,0,1-.59,1.68,10.2,10.2,0,0,0-.75,1.28c-1,2.19-1.35,5-.74,9.84a.77.77,0,0,1,.26,0,2.19,2.19,0,0,1,1.15.61c1.22-4.6.31-3.86.64-7.94a3.31,3.31,0,0,1,2-2.69c2.28-.88,3.25.56,6.53.56s4.24-1.44,6.52-.56a3.29,3.29,0,0,1,2,2.69c.33,4.12-.6,3.32.67,8.06h0a2.19,2.19,0,0,1,1.25-.73h.15C65.5,14,64.82,10.79,63.15,8.42Z"/><path id="SVGID-15" data-name="SVGID" class="cls-2" d="M58.56,30V30c0,1.2-2,2.17-4.34,2.17s-4.33-1-4.33-2.17V30Z"/><g class="cls-30"><path class="cls-23" d="M58.2,30.6a20.59,20.59,0,0,1-3.6.29c-.24,0-.48,0-.71,0a18.88,18.88,0,0,1-3.71-.35c-.11,0-.19-.61-.19-.61h8.47S58.4,30.55,58.2,30.6Z"/></g><path class="cls-23" d="M56.91,21.55a2,2,0,0,1,2-1.57,1.61,1.61,0,0,1,1.67,1.51,2,2,0,0,1-1.77,1.21A2.33,2.33,0,0,1,56.91,21.55Z"/><circle class="cls-31" cx="58.72" cy="21.34" r="1"/><circle class="cls-5" cx="58.72" cy="21.34" r="0.38"/><circle class="cls-23" cx="59.33" cy="20.78" r="0.24"/><polyline class="cls-32" points="47.32 18.9 51.36 18.69 52.19 19.03"/><polyline class="cls-32" points="61.03 18.9 56.98 18.69 56.15 19.03"/><path class="cls-23" d="M51.6,21.55a2,2,0,0,0-2-1.57A1.61,1.61,0,0,0,48,21.49a2,2,0,0,0,1.76,1.21A2.33,2.33,0,0,0,51.6,21.55Z"/><circle class="cls-31" cx="49.79" cy="21.34" r="0.99"/><circle class="cls-5" cx="49.79" cy="21.34" r="0.38"/><circle class="cls-23" cx="49.28" cy="20.67" r="0.24"/><circle class="cls-31" cx="103.72" cy="51.58" r="1.75"/><circle class="cls-31" cx="97.24" cy="45.1" r="1.75"/><circle class="cls-31" cx="92.03" cy="48.74" r="1.75"/><circle class="cls-31" cx="85.65" cy="42.26" r="1.75"/><path class="cls-33" d="M83.4,42.27a2.25,2.25,0,0,0,2.25,2.25,2.2,2.2,0,0,0,1.18-.35l3.31,3.37a2.15,2.15,0,0,0-.36,1.2,2.25,2.25,0,1,0,4.5,0,2.14,2.14,0,0,0-.17-.84l1.63-1.14a2.23,2.23,0,0,0,1.5.59A2.19,2.19,0,0,0,98.43,47l3.39,3.38a2.26,2.26,0,1,0,.7-.7l-3.38-3.39a2.19,2.19,0,0,0,.35-1.19,2.25,2.25,0,0,0-4.5,0,2.22,2.22,0,0,0,.17.85l-1.63,1.13a2.23,2.23,0,0,0-1.5-.59,2.29,2.29,0,0,0-1.18.34l-3.31-3.36a2.17,2.17,0,0,0,.36-1.2,2.25,2.25,0,0,0-4.5,0Zm19.07,9.31a1.25,1.25,0,1,1,1.25,1.25A1.25,1.25,0,0,1,102.47,51.58ZM96,45.1a1.25,1.25,0,1,1,1.25,1.25A1.25,1.25,0,0,1,96,45.1Zm-5.21,3.64A1.25,1.25,0,1,1,92,50,1.25,1.25,0,0,1,90.78,48.74ZM84.4,42.27a1.25,1.25,0,1,1,1.25,1.25A1.25,1.25,0,0,1,84.4,42.27Z"/><circle class="cls-34" cx="15.09" cy="15.46" r="9.39"/><path class="cls-5" d="M15.09,5.44a10,10,0,1,0,10,10A10,10,0,0,0,15.09,5.44Zm0,18.78a8.77,8.77,0,1,1,8.77-8.76A8.77,8.77,0,0,1,15.09,24.22Z"/><rect class="cls-5" x="14.3" y="17.86" width="1.6" height="1.56"/><polygon class="cls-5" points="14.26 13.51 14.7 17.22 15.5 17.22 15.93 13.51 15.93 11.49 14.26 11.49 14.26 13.51"/><path class="cls-34" d="M88.43,33.1a7.77,7.77,0,1,1,7.77-7.77A7.77,7.77,0,0,1,88.43,33.1Z"/><path class="cls-5" d="M88.43,16.94a8.39,8.39,0,1,0,8.39,8.39A8.39,8.39,0,0,0,88.43,16.94Zm0,15.53a7.14,7.14,0,1,1,7.14-7.14A7.15,7.15,0,0,1,88.43,32.47Z"/><path class="cls-5" d="M90,22.49A2.8,2.8,0,0,0,88.35,22a2.3,2.3,0,0,0-1.29.34,2.08,2.08,0,0,0-.89,1.8h1.29a1.29,1.29,0,0,1,.22-.71.78.78,0,0,1,.73-.34.83.83,0,0,1,.72.27,1.09,1.09,0,0,1,.2.62.88.88,0,0,1-.18.54,1,1,0,0,1-.26.27l-.32.25a1.9,1.9,0,0,0-.6.66,4,4,0,0,0-.14,1.05H89a1.7,1.7,0,0,1,.06-.53,1,1,0,0,1,.34-.47l.32-.25a3.62,3.62,0,0,0,.65-.61,1.65,1.65,0,0,0,.29-1A1.67,1.67,0,0,0,90,22.49Z"/><rect class="cls-5" x="87.8" y="27.37" width="1.33" height="1.29"/></symbol></defs><title>work-it-out</title><g id="Layer_2" data-name="Layer 2"><g id="Layer_1-2" data-name="Layer 1"><use id="Work_it_Out-3" data-name="Work it Out" width="105.97" height="58.41" xlink:href="#Work_it_Out"/></g></g></svg>